<svg width="200" height="34" viewBox="0 0 205 35" fill="none" xmlns="http://www.w3.org/2000/svg">
<path d="M22.4623 19.68C22.5428 18.2429 23.2465 16.9768 24.3082 16.0793C25.3493 15.1978 26.7507 14.659 28.2797 14.659C29.8072 14.659 31.2086 15.1978 32.2505 16.0793C33.3114 16.9768 34.0151 18.2429 34.0964 19.6785C34.177 21.1551 33.5835 22.5268 32.5423 23.5436C31.4807 24.5779 29.9706 25.2269 28.2797 25.2269C26.5888 25.2269 25.0757 24.5779 24.0148 23.5436C22.9729 22.5268 22.3809 21.1551 22.4623 19.68Z" fill="white"/>
<path d="M13.1969 22.583C13.2068 23.1454 13.3862 24.2382 13.6552 25.0917C14.2206 26.8981 15.1797 28.5692 16.5141 30.042C17.8836 31.5558 19.5699 32.7718 21.5177 33.6351C23.565 34.5417 25.7833 35.0038 28.0875 35C30.3879 34.9969 32.6062 34.5257 34.6536 33.6123C36.6013 32.7406 38.2861 31.5194 39.6533 30.0048C40.987 28.5259 41.9446 26.8517 42.5115 25.0453C42.7965 24.1326 42.9766 23.2062 43.0488 22.2768C43.1195 21.361 43.0898 20.4438 42.9599 19.5273C42.7061 17.7414 42.0882 16.0657 41.1367 14.5381C40.2666 13.1345 39.1449 11.9057 37.8112 10.8714L37.8142 10.8691L24.3546 0.534425C24.3425 0.525305 24.3326 0.515441 24.3197 0.507082C23.4366 -0.170799 21.9516 -0.168516 20.9804 0.510885C19.9986 1.19789 19.8861 2.334 20.76 3.05064L20.7562 3.05445L26.37 7.61949L9.25961 7.63775C9.25125 7.63775 9.24289 7.63775 9.23681 7.63775C7.82253 7.63927 6.46297 8.56717 6.19395 9.73978C5.91732 10.9344 6.8779 11.9254 8.34842 11.9307L8.34615 11.9361L17.0188 11.9193L1.54301 23.7982C1.52325 23.8126 1.50197 23.8279 1.48373 23.8423C0.0238504 24.9602 -0.448072 26.819 0.471476 27.9955C1.4047 29.1916 3.38895 29.1939 4.86402 28.0023L13.3102 21.0897C13.3102 21.0897 13.1871 22.0229 13.1969 22.583ZM34.9005 25.708C33.1602 27.481 30.7238 28.4864 28.0875 28.4917C25.4474 28.4963 23.011 27.5 21.2707 25.73C20.4203 24.8675 19.7956 23.875 19.4103 22.8179C19.0326 21.779 18.886 20.6763 18.9832 19.5637C19.0752 18.4762 19.399 17.4389 19.9157 16.5003C20.4234 15.5778 21.1225 14.7441 21.9858 14.0389C23.6775 12.6603 25.8312 11.914 28.0837 11.911C30.3385 11.9079 32.4907 12.6474 34.1839 14.0214C35.0457 14.7236 35.7441 15.5542 36.2518 16.4753C36.7708 17.4131 37.0923 18.4466 37.188 19.5371C37.2838 20.6482 37.1371 21.7494 36.7594 22.789C36.3733 23.8491 35.7509 24.8416 34.9005 25.708Z" fill="white"/>
<path d="M114.666 19.6541C114.796 18.2041 115.917 17.2846 117.629 17.2846C119.344 17.2846 120.464 18.2041 120.594 19.6541H114.666ZM120.418 23.2343C119.98 24.3089 118.946 24.945 117.543 24.945C115.785 24.945 114.602 23.8476 114.554 22.1141H124.659C124.659 21.934 124.659 21.7835 124.659 21.6042C124.659 17.2618 122.11 14.8216 117.543 14.8216C113.108 14.8216 110.426 17.2846 110.426 21.1474C110.426 25.0339 113.15 27.4931 117.543 27.4931C120.179 27.4931 122.223 26.5895 123.483 25.0012L120.418 23.2343Z" fill="white"/>
<path d="M69.8213 19.6634C69.9551 18.2134 71.076 17.2939 72.7897 17.2939C74.5012 17.2939 75.6214 18.2134 75.7528 19.6634H69.8213ZM75.5773 23.2436C75.138 24.3212 74.1052 24.9573 72.6985 24.9573C70.9438 24.9573 69.7575 23.8569 69.7112 22.1226H79.814C79.814 21.9448 79.814 21.7951 79.814 21.6158C79.814 17.2711 77.2659 14.8301 72.6985 14.8301C68.2612 14.8301 65.5846 17.2939 65.5846 21.1567C65.5846 25.0432 68.3068 27.5024 72.6985 27.5024C75.3341 27.5024 77.3799 26.6018 78.6422 25.0112L75.5773 23.2436Z" fill="white"/>
<path d="M64.7102 12.1944H61.0662V27.1025H64.7102V12.1944Z" fill="white"/>
<path d="M80.7142 16.1554H84.3787V17.0431C85.676 15.6584 87.2339 14.9585 88.9909 14.9585C91.0147 14.9585 92.5468 15.6584 93.3379 16.85C93.9983 17.8342 94.0416 19.022 94.0416 20.5829V27.1026H90.3718V21.3741C90.3718 18.9969 89.8938 17.8995 87.8069 17.8995C85.698 17.8995 84.3787 19.1557 84.3787 21.2646V27.1026H80.7142V16.1554Z" fill="white"/>
<path d="M105.849 21.3347C105.849 23.3751 104.486 24.7134 102.376 24.7134C100.265 24.7134 98.9019 23.4207 98.9019 21.3582C98.9019 19.2653 100.247 17.9734 102.376 17.9734C104.486 17.9734 105.849 19.2881 105.849 21.3347ZM105.849 16.6556C104.923 15.6623 103.582 15.1175 101.719 15.1175C97.6989 15.1175 94.9539 17.5964 94.9539 21.3119C94.9539 24.9543 97.6799 27.5025 101.653 27.5025C103.475 27.5025 104.812 27.0419 105.849 26.0092V27.1065H109.516V11.2531L105.849 12.1985V16.6556Z" fill="white"/>
<path d="M52.7325 17.9734C54.8634 17.9734 56.2033 19.2653 56.2033 21.3582C56.2033 23.4207 54.8422 24.7134 52.7325 24.7134C50.6244 24.7134 49.2626 23.3751 49.2626 21.3347C49.2626 19.2881 50.6244 17.9734 52.7325 17.9734ZM49.2626 12.1985L45.5943 11.2531V27.1065H49.2626V26.0092C50.2946 27.0419 51.6344 27.5025 53.4575 27.5025C57.4329 27.5025 60.155 24.9543 60.155 21.3119C60.155 17.5964 57.4093 15.1175 53.3914 15.1175C51.5242 15.1175 50.1844 15.6623 49.2626 16.6556V12.1985Z" fill="white"/>
<path d="M125.555 27.107V16.1599H129.222V16.8362C130.32 15.5139 131.482 14.8558 132.804 14.8558C133.066 14.8558 133.396 14.8984 133.834 14.9417V18.0628C133.481 18.0165 133.087 18.0164 132.669 18.0164C130.538 18.0164 129.222 19.4224 129.222 21.8132V27.107H125.555Z" fill="white"/>
<path d="M148.884 12.7021C147.158 12.7021 145.794 13.2786 144.791 14.4316C143.796 15.5775 143.298 17.1494 143.298 19.1475C143.298 21.2028 143.778 22.7926 144.737 23.917C145.704 25.0342 147.079 25.5928 148.862 25.5928C149.958 25.5928 151.208 25.3958 152.611 25.002V26.6025C151.523 27.0107 150.18 27.2148 148.583 27.2148C146.27 27.2148 144.483 26.513 143.223 25.1094C141.969 23.7057 141.343 21.7113 141.343 19.126C141.343 17.5075 141.644 16.0895 142.245 14.8721C142.854 13.6546 143.728 12.7165 144.866 12.0576C146.012 11.3988 147.358 11.0693 148.905 11.0693C150.552 11.0693 151.992 11.3701 153.224 11.9717L152.45 13.54C151.261 12.9814 150.073 12.7021 148.884 12.7021ZM157.553 27H155.77V10.2852H157.553V27ZM171.496 21.1025C171.496 23.0218 171.013 24.5221 170.046 25.6035C169.079 26.6777 167.743 27.2148 166.039 27.2148C164.986 27.2148 164.052 26.9678 163.235 26.4736C162.419 25.9795 161.789 25.2705 161.345 24.3467C160.901 23.4229 160.679 22.3415 160.679 21.1025C160.679 19.1833 161.159 17.6901 162.118 16.623C163.078 15.5488 164.41 15.0117 166.114 15.0117C167.761 15.0117 169.068 15.5596 170.035 16.6553C171.009 17.751 171.496 19.2334 171.496 21.1025ZM162.526 21.1025C162.526 22.6064 162.827 23.7523 163.429 24.54C164.03 25.3278 164.915 25.7217 166.082 25.7217C167.249 25.7217 168.134 25.3314 168.735 24.5508C169.344 23.763 169.648 22.6136 169.648 21.1025C169.648 19.6058 169.344 18.4707 168.735 17.6973C168.134 16.9167 167.242 16.5264 166.061 16.5264C164.893 16.5264 164.012 16.9095 163.418 17.6758C162.824 18.4421 162.526 19.5843 162.526 21.1025ZM176.309 15.2266V22.8643C176.309 23.8239 176.527 24.54 176.964 25.0127C177.401 25.4854 178.085 25.7217 179.016 25.7217C180.247 25.7217 181.146 25.3851 181.712 24.7119C182.285 24.0387 182.571 22.9395 182.571 21.4141V15.2266H184.354V27H182.883L182.625 25.4209H182.528C182.163 26.001 181.655 26.445 181.003 26.7529C180.358 27.0609 179.621 27.2148 178.79 27.2148C177.358 27.2148 176.284 26.8747 175.567 26.1943C174.858 25.514 174.504 24.4255 174.504 22.9287V15.2266H176.309ZM196.16 25.4209H196.063C195.24 26.6169 194.008 27.2148 192.368 27.2148C190.828 27.2148 189.629 26.6885 188.77 25.6357C187.917 24.583 187.491 23.0863 187.491 21.1455C187.491 19.2048 187.921 17.6973 188.78 16.623C189.64 15.5488 190.836 15.0117 192.368 15.0117C193.965 15.0117 195.19 15.5918 196.042 16.752H196.182L196.106 15.9033L196.063 15.0762V10.2852H197.847V27H196.396L196.16 25.4209ZM192.594 25.7217C193.811 25.7217 194.692 25.3923 195.236 24.7334C195.788 24.0674 196.063 22.9967 196.063 21.5215V21.1455C196.063 19.4769 195.784 18.2881 195.226 17.5791C194.674 16.863 193.79 16.5049 192.572 16.5049C191.527 16.5049 190.725 16.9131 190.166 17.7295C189.615 18.5387 189.339 19.6846 189.339 21.167C189.339 22.6709 189.615 23.806 190.166 24.5723C190.717 25.3385 191.527 25.7217 192.594 25.7217Z" fill="#E87D0D"/>
</svg>
