<svg width="24" height="24" viewBox="0 0 24 24" fill="none" xmlns="http://www.w3.org/2000/svg">
<path d="M12.5383 13.0507C12.5832 12.2502 12.9752 11.545 13.5665 11.0451C14.1465 10.554 14.9271 10.2539 15.7788 10.2539C16.6296 10.2539 17.4102 10.554 17.9906 11.0451C18.5815 11.545 18.9735 12.2502 19.0188 13.0499C19.0637 13.8724 18.7331 14.6365 18.1531 15.2028C17.5618 15.779 16.7206 16.1405 15.7788 16.1405C14.8369 16.1405 13.9941 15.779 13.4031 15.2028C12.8228 14.6365 12.493 13.8724 12.5383 13.0507Z" fill="white"/>
<path d="M7.35101 14.6408C7.35651 14.954 7.45641 15.5628 7.60627 16.0382C7.92121 17.0444 8.45543 17.9752 9.19877 18.7956C9.96158 19.6389 10.9009 20.3162 11.9859 20.797C13.1263 21.3021 14.3619 21.5594 15.6454 21.5573C16.9268 21.5556 18.1624 21.2932 19.3029 20.7843C20.3878 20.2988 21.3263 19.6185 22.0878 18.7749C22.8307 17.9511 23.3641 17.0186 23.6799 16.0123C23.8387 15.5039 23.939 14.9879 23.9792 14.4702C24.0186 13.9601 24.0021 13.4492 23.9297 12.9387C23.7883 11.9439 23.4441 11.0105 22.9141 10.1596C22.4294 9.37774 21.8046 8.69325 21.0617 8.11712L21.0634 8.11585L13.5661 2.35921C13.5593 2.35413 13.5538 2.34864 13.5466 2.34398C13.0547 1.96638 12.2276 1.96766 11.6866 2.3461C11.1397 2.72877 11.077 3.36162 11.5638 3.7608L11.5617 3.76292L14.6887 6.30576L5.15782 6.31593C5.15316 6.31593 5.14851 6.31593 5.14512 6.31593C4.35734 6.31677 3.60003 6.83363 3.45017 7.48681C3.29609 8.15225 3.83115 8.70425 4.65027 8.70722L4.649 8.71019L9.47985 8.70087L0.859491 15.3177C0.848484 15.3257 0.83663 15.3342 0.826471 15.3422C0.0132852 15.9649 -0.249586 17.0003 0.262623 17.6556C0.782452 18.3219 1.88772 18.3232 2.70938 17.6594L7.41408 13.809C7.41408 13.809 7.34551 14.3288 7.35101 14.6408ZM19.4404 16.3815C18.471 17.369 17.1139 17.9291 15.6454 17.9321C14.1748 17.9346 12.8177 17.3796 11.8483 16.3937C11.3746 15.9133 11.0266 15.3604 10.812 14.7716C10.6016 14.1929 10.5199 13.5787 10.5741 12.959C10.6253 12.3532 10.8057 11.7754 11.0935 11.2526C11.3763 10.7387 11.7657 10.2743 12.2466 9.88149C13.1889 9.1136 14.3886 8.6979 15.6433 8.69621C16.8993 8.69452 18.0981 9.1064 19.0412 9.87175C19.5213 10.2629 19.9103 10.7256 20.1931 11.2386C20.4822 11.761 20.6613 12.3367 20.7146 12.9442C20.7679 13.563 20.6862 14.1764 20.4759 14.7555C20.2608 15.346 19.9141 15.8989 19.4404 16.3815Z" fill="white"/>
</svg>
