<svg width="512" height="138" viewBox="0 0 512 138" fill="none" xmlns="http://www.w3.org/2000/svg">
<path d="M85.0271 76.0856C85.3212 70.8378 87.8911 66.2143 91.768 62.9368C95.57 59.7176 100.687 57.75 106.271 57.75C111.849 57.75 116.967 59.7176 120.772 62.9368C124.646 66.2143 127.215 70.8377 127.512 76.0801C127.807 81.4723 125.639 86.4815 121.837 90.1947C117.96 93.9717 112.446 96.3418 106.271 96.3418C100.096 96.3418 94.571 93.9717 90.6968 90.1947C86.892 86.4815 84.7301 81.4723 85.0271 76.0856Z" fill="white"/>
<path fill-rule="evenodd" clip-rule="evenodd" d="M51.1923 86.7181C51.2283 88.7718 51.8833 92.7626 52.8657 95.8791C54.9304 102.476 58.4327 108.578 63.3059 113.957C68.3068 119.485 74.465 123.925 81.5778 127.078C89.0542 130.388 97.1549 132.076 105.569 132.062C113.97 132.051 122.071 130.33 129.547 126.994C136.66 123.811 142.812 119.352 147.805 113.821C152.675 108.42 156.172 102.306 158.242 95.7098C159.283 92.3768 159.941 88.9938 160.204 85.5998C160.463 82.2557 160.354 78.906 159.88 75.5591C158.953 69.0374 156.697 62.9181 153.222 57.34C150.044 52.2142 145.948 47.7268 141.078 43.9498L91.8099 6.10175C88.5852 3.62628 83.1625 3.63462 79.6158 6.11564C76.0302 8.62441 75.6195 12.7733 78.8109 15.3903L99.2974 32.0747L36.7308 32.1413C31.5661 32.1469 26.6013 35.5354 25.6189 39.8175C24.6087 44.1801 28.1165 47.7989 33.4865 47.8183L65.1487 47.7767L8.41824 91.3167C3.0871 95.399 1.36374 102.187 4.72172 106.483C8.12966 110.851 15.3757 110.86 20.7623 106.508L51.6058 81.2649C51.6058 81.2649 51.1562 84.6728 51.1923 86.7181ZM105.569 108.295C115.196 108.276 124.094 104.604 130.449 98.1297C133.554 94.966 135.827 91.3417 137.237 87.4703C138.616 83.6738 139.152 79.6525 138.802 75.5952C138.453 71.6128 137.279 67.8386 135.383 64.414C133.529 61.0505 130.979 58.0172 127.832 55.4529C121.649 50.4353 113.789 47.7351 105.555 47.7462C97.3298 47.7573 89.4649 50.4826 83.2873 55.5167C80.1347 58.0921 77.5815 61.1365 75.7277 64.5055C73.8406 67.9329 72.6583 71.721 72.3225 75.6923C71.9673 79.7552 72.5029 83.782 73.8822 87.5757C75.2892 91.436 77.5704 95.0604 80.6758 98.2102C87.031 104.674 95.9283 108.312 105.569 108.295Z" fill="white"/>
<path d="M421.986 76.0224C422.46 70.7274 426.554 67.3694 432.806 67.3694C439.067 67.3694 443.157 70.7274 443.632 76.0224H421.986ZM442.991 89.0964C441.39 93.0205 437.615 95.3433 432.49 95.3433C426.071 95.3433 421.75 91.3359 421.575 85.0057H458.477V83.1436C458.477 67.2862 449.169 58.375 432.49 58.375C416.294 58.375 406.5 67.3694 406.5 81.4757C406.5 95.668 416.446 104.649 432.49 104.649C442.117 104.649 449.582 101.349 454.183 95.5487L442.991 89.0964Z" fill="white"/>
<path d="M257.972 76.0252C258.46 70.7301 262.553 67.3721 268.812 67.3721C275.061 67.3721 279.152 70.7301 279.632 76.0252H257.972ZM278.991 89.0991C277.387 93.0343 273.615 95.3571 268.479 95.3571C262.071 95.3571 257.739 91.3386 257.569 85.0056H294.463V83.1546C294.463 67.2889 285.157 58.375 268.479 58.375C252.274 58.375 242.5 67.3721 242.5 81.4784C242.5 95.6707 252.441 104.651 268.479 104.651C278.103 104.651 285.574 101.363 290.183 95.5541L278.991 89.0991Z" fill="white"/>
<path d="M239.307 48.75H226V103.191H239.307V48.75Z" fill="white"/>
<path d="M298 63.246H311.382V66.4874C316.119 61.431 321.808 58.875 328.225 58.875C335.615 58.875 341.21 61.431 344.099 65.7825C346.51 69.3763 346.668 73.7139 346.668 79.4142V103.223H333.267V82.3032C333.267 73.6224 331.522 69.615 323.901 69.615C316.2 69.615 311.382 74.2024 311.382 81.9035V103.223H298V63.246Z" fill="white"/>
<path d="M389.788 82.1906C389.788 89.642 384.809 94.5291 377.105 94.5291C369.396 94.5291 364.417 89.8085 364.417 82.2767C364.417 74.6338 369.329 69.916 377.105 69.916C384.809 69.916 389.788 74.717 389.788 82.1906ZM389.788 65.1038C386.405 61.4766 381.51 59.4868 374.705 59.4868C360.024 59.4868 350 68.5395 350 82.1074C350 95.4088 359.955 104.714 374.463 104.714C381.115 104.714 386 103.032 389.788 99.2608V103.268H403.178V45.375L389.788 48.8273V65.1038Z" fill="white"/>
<path d="M195.567 69.916C203.349 69.916 208.242 74.6338 208.242 82.2767C208.242 89.8085 203.271 94.5291 195.567 94.5291C187.869 94.5291 182.896 89.642 182.896 82.1906C182.896 74.717 187.869 69.916 195.567 69.916ZM182.896 48.8273L169.5 45.375V103.268H182.896V99.2608C186.665 103.032 191.557 104.714 198.215 104.714C212.732 104.714 222.673 95.4088 222.673 82.1074C222.673 68.5395 212.646 59.4868 197.973 59.4868C191.155 59.4868 186.262 61.4766 182.896 65.1038V48.8273Z" fill="white"/>
<path d="M461.5 103.239V63.2622H474.89V65.7321C478.9 60.9033 483.144 58.5 487.97 58.5C488.927 58.5 490.132 58.6554 491.733 58.8136V70.2113C490.442 70.042 489.005 70.042 487.479 70.042C479.694 70.042 474.89 75.1761 474.89 83.9068V103.239H461.5Z" fill="white"/>
<path d="M498.622 54.4575C498.622 53.526 498.836 52.6614 499.265 51.8637C499.699 51.0659 500.296 50.4388 501.057 49.9822C501.822 49.5211 502.648 49.2905 503.533 49.2905C504.419 49.2905 505.242 49.5211 506.003 49.9822C506.763 50.4388 507.358 51.0659 507.787 51.8637C508.221 52.6614 508.437 53.526 508.437 54.4575C508.437 55.366 508.23 56.2168 507.815 57.0099C507.4 57.8031 506.81 58.4417 506.044 58.9259C505.283 59.4055 504.446 59.6453 503.533 59.6453C502.625 59.6453 501.788 59.4078 501.022 58.9328C500.261 58.4533 499.671 57.8169 499.252 57.0238C498.832 56.2306 498.622 55.3752 498.622 54.4575ZM499.418 54.4575C499.418 55.2507 499.602 55.9862 499.971 56.6641C500.34 57.3373 500.84 57.8653 501.472 58.2481C502.108 58.6308 502.795 58.8222 503.533 58.8222C504.276 58.8222 504.965 58.6285 505.601 58.2411C506.238 57.8492 506.736 57.3189 507.095 56.6502C507.46 55.9816 507.642 55.2507 507.642 54.4575C507.642 53.669 507.46 52.9427 507.095 52.2787C506.736 51.61 506.238 51.0843 505.601 50.7016C504.965 50.3142 504.276 50.1206 503.533 50.1206C502.795 50.1206 502.108 50.3119 501.472 50.6947C500.836 51.0728 500.333 51.5985 499.964 52.2718C499.6 52.945 499.418 53.6736 499.418 54.4575ZM502.516 54.9763V57.3143H501.541V51.4417H503.45C504.156 51.4417 504.702 51.5939 505.089 51.8982C505.481 52.198 505.677 52.6361 505.677 53.2125C505.677 53.7797 505.382 54.2131 504.792 54.5129C505.355 54.7434 505.638 55.2138 505.643 55.9239V56.3459C505.643 56.7425 505.682 57.0284 505.76 57.2036V57.3143H504.757C504.693 57.1483 504.661 56.8531 504.661 56.4289C504.661 56 504.654 55.7464 504.64 55.668C504.566 55.2253 504.264 54.9948 503.734 54.9763H502.516ZM502.516 54.0909H503.595C503.927 54.0817 504.195 54.001 504.398 53.8488C504.601 53.6967 504.702 53.4961 504.702 53.2471C504.702 52.9104 504.612 52.6729 504.432 52.5346C504.253 52.3917 503.932 52.3202 503.471 52.3202H502.516V54.0909Z" fill="white"/>
</svg>
