<svg width="28" height="20" viewBox="0 0 28 20" fill="none" xmlns="http://www.w3.org/2000/svg">
<path d="M14.0647 0C12.1159 0 10.3322 0.760198 8.9151 2.19004C7.1212 4.00006 6.39577 6.52045 6.97321 8.95242C7.60125 11.5976 9.71702 13.6853 12.4557 14.3763C13.5801 14.66 15.2577 14.5757 16.3699 14.182L16.9193 13.9875L17.1835 14.4803C17.2863 14.6721 17.3921 14.8457 17.4854 14.9782C17.5321 15.0444 17.5747 15.0998 17.6188 15.1471C17.6408 15.1707 17.6626 15.1925 17.6932 15.2152C17.7238 15.2378 17.7598 15.2748 17.8628 15.2748C17.9508 15.2748 17.9972 15.239 18.0261 15.2161C18.0551 15.1932 18.0713 15.1736 18.0864 15.1545C18.1164 15.1164 18.1386 15.079 18.1629 15.0349C18.2114 14.9468 18.2635 14.8344 18.3209 14.7001C18.4357 14.4315 18.5692 14.0786 18.6953 13.7181C18.8213 13.3577 18.9396 12.9911 19.0223 12.6954C19.0636 12.5476 19.0961 12.418 19.1166 12.3109C19.1269 12.2573 19.1343 12.2098 19.1378 12.1632C19.1413 12.1166 19.1519 12.0782 19.1188 11.9919V11.9917C19.101 11.9454 19.0752 11.8667 19.0078 11.7927C18.9404 11.7187 18.8577 11.6711 18.7422 11.6173C18.5114 11.5097 18.1118 11.3665 17.2842 11.065C16.95 10.9432 16.6389 10.8456 16.3987 10.7846C16.2786 10.7541 16.1775 10.7326 16.0909 10.7219C16.0476 10.7166 16.009 10.7132 15.9614 10.7168C15.9138 10.7204 15.8244 10.707 15.7412 10.8413C15.7411 10.8413 15.7411 10.8414 15.741 10.8414C15.6955 10.9152 15.6991 10.9603 15.6984 10.998C15.6977 11.0358 15.7013 11.0678 15.7065 11.1015C15.7169 11.1687 15.7349 11.241 15.7593 11.3229C15.8079 11.4866 15.8821 11.6856 15.973 11.8911C16.0568 12.0807 16.1234 12.2597 16.1605 12.3852C16.1645 12.3985 16.164 12.4016 16.1673 12.4136C15.9969 12.4831 15.6923 12.5786 15.3272 12.651C14.8825 12.7392 14.3865 12.8009 14.0529 12.8009C11.3765 12.8009 9.06514 10.8322 8.59755 8.14707C8.18604 5.7841 9.56012 3.25753 11.8349 2.22002C13.2665 1.56708 15.1974 1.63072 16.6847 2.38946C17.2611 2.68352 17.9119 3.28203 18.4344 3.96317C18.9569 4.6443 19.3527 5.41231 19.4632 6.00685C19.5292 6.36194 19.6831 6.66118 19.9825 6.83138C20.2818 7.00157 20.6742 7.0585 21.259 7.09695C23.3035 7.2312 25.1287 8.72956 25.8715 10.9201C26.1017 11.6008 26.1319 11.8788 26.0842 12.8974C26.0351 13.9475 25.9838 14.1749 25.6188 14.9408C24.8596 16.534 23.2584 17.8013 21.6337 18.1094C21.5936 18.117 21.2933 18.1406 20.8695 18.1557C20.4458 18.1709 19.8718 18.1843 19.1828 18.1956C17.8048 18.218 15.9658 18.2313 13.9355 18.2313C11.9052 18.2313 10.0661 18.218 8.68814 18.1956C7.99914 18.1843 7.42532 18.1709 7.00156 18.1557C6.57781 18.1406 6.27736 18.117 6.23726 18.1094C4.61889 17.8025 3.02238 16.5422 2.24115 14.9372C1.8194 14.0707 1.82471 14.0757 1.82558 12.648C1.82688 11.0696 2.0462 10.2636 2.64322 9.52167L2.79632 9.33137L3.17557 9.60627C3.39601 9.76597 3.56592 9.88277 3.72872 9.95197C3.81012 9.98647 3.89325 10.0137 3.99686 10.0042C4.10046 9.99467 4.21675 9.92177 4.2712 9.83367C4.3801 9.65737 4.36149 9.48927 4.34046 9.25227C4.31944 9.01526 4.26961 8.71056 4.19816 8.31638C4.13172 7.94996 4.07114 7.60626 4.0271 7.34861C4.00508 7.21978 3.98715 7.11241 3.97485 7.03511C3.9687 6.99646 3.96387 6.96516 3.96081 6.94357C3.95782 6.92244 3.95704 6.89858 3.9577 6.92534C3.95439 6.7816 3.86468 6.65008 3.76099 6.57755C3.6573 6.50502 3.53936 6.4681 3.40699 6.44443C3.14224 6.39709 2.81147 6.40929 2.43193 6.47575C1.62837 6.61637 1.0987 6.71715 0.759388 6.79857C0.589738 6.83927 0.469018 6.87359 0.372848 6.91387C0.324758 6.934 0.282218 6.95408 0.235808 6.99177C0.1894 7.02946 0.124017 7.10551 0.124017 7.21427C0.124017 7.31702 0.156127 7.34429 0.175322 7.37372C0.194517 7.40316 0.213513 7.42583 0.234863 7.4496C0.277558 7.49714 0.329568 7.54669 0.392018 7.60203C0.516908 7.7127 0.682268 7.84365 0.864828 7.9748L1.32968 8.30882L1.06344 8.73937C1.06339 8.73937 1.06335 8.73937 1.0633 8.73937C0.159233 10.2008 -0.212627 12.2885 0.120369 14.0123C0.662868 16.8208 2.96265 19.1849 5.73987 19.7863C5.75302 19.7891 5.76639 19.7908 5.77983 19.7914C5.98394 19.8311 6.30781 19.8566 6.78433 19.8813C7.28528 19.9073 7.92954 19.929 8.67072 19.9464C10.1531 19.9813 12.0221 19.9992 13.8923 20C15.7625 20.0009 17.6334 19.9846 19.1193 19.9511C19.8623 19.9344 20.5089 19.9134 21.0125 19.8878C21.5161 19.8623 21.8628 19.8365 22.0653 19.7938C26.0805 18.9471 28.6806 14.7969 27.6727 10.8393C26.9591 8.03746 24.6369 5.85364 21.862 5.38606L21.0503 5.2493L20.8714 4.72315C19.9471 2.00383 17.0488 0 14.0647 0Z" fill="white"/>
</svg>
