<svg width="206" height="35" viewBox="0 0 206 35" fill="none" xmlns="http://www.w3.org/2000/svg">
<path d="M22.4623 19.68C22.5428 18.2429 23.2465 16.9768 24.3082 16.0793C25.3493 15.1978 26.7507 14.659 28.2797 14.659C29.8072 14.659 31.2086 15.1978 32.2505 16.0793C33.3114 16.9768 34.0151 18.2429 34.0964 19.6785C34.177 21.1551 33.5835 22.5268 32.5423 23.5436C31.4807 24.5779 29.9706 25.2269 28.2797 25.2269C26.5888 25.2269 25.0757 24.5779 24.0148 23.5436C22.9729 22.5268 22.3809 21.1551 22.4623 19.68Z" fill="white"/>
<path d="M13.1969 22.583C13.2068 23.1454 13.3862 24.2382 13.6552 25.0917C14.2206 26.8981 15.1797 28.5692 16.5141 30.042C17.8836 31.5558 19.5699 32.7718 21.5177 33.6351C23.565 34.5417 25.7833 35.0038 28.0875 35C30.3879 34.9969 32.6062 34.5257 34.6536 33.6123C36.6013 32.7406 38.2861 31.5194 39.6533 30.0048C40.987 28.5259 41.9446 26.8517 42.5115 25.0453C42.7965 24.1326 42.9766 23.2062 43.0488 22.2768C43.1195 21.361 43.0898 20.4438 42.9599 19.5273C42.7061 17.7414 42.0882 16.0657 41.1367 14.5381C40.2666 13.1345 39.1449 11.9057 37.8112 10.8714L37.8142 10.8691L24.3546 0.534425C24.3425 0.525305 24.3326 0.515441 24.3197 0.507082C23.4366 -0.170799 21.9516 -0.168516 20.9804 0.510885C19.9986 1.19789 19.8861 2.334 20.76 3.05064L20.7562 3.05445L26.37 7.61949L9.25961 7.63775C9.25125 7.63775 9.24289 7.63775 9.23681 7.63775C7.82253 7.63927 6.46297 8.56717 6.19395 9.73978C5.91732 10.9344 6.8779 11.9254 8.34842 11.9307L8.34615 11.9361L17.0188 11.9193L1.54301 23.7982C1.52325 23.8126 1.50197 23.8279 1.48373 23.8423C0.0238504 24.9602 -0.448072 26.819 0.471476 27.9955C1.4047 29.1916 3.38895 29.1939 4.86402 28.0023L13.3102 21.0897C13.3102 21.0897 13.1871 22.0229 13.1969 22.583ZM34.9005 25.708C33.1602 27.481 30.7238 28.4864 28.0875 28.4917C25.4474 28.4963 23.011 27.5 21.2707 25.73C20.4203 24.8675 19.7956 23.875 19.4103 22.8179C19.0326 21.779 18.886 20.6763 18.9832 19.5637C19.0752 18.4762 19.399 17.4389 19.9157 16.5003C20.4234 15.5778 21.1225 14.7441 21.9858 14.0389C23.6775 12.6603 25.8312 11.914 28.0837 11.911C30.3385 11.9079 32.4907 12.6474 34.1839 14.0214C35.0457 14.7236 35.7441 15.5542 36.2518 16.4753C36.7708 17.4131 37.0923 18.4466 37.188 19.5371C37.2838 20.6482 37.1371 21.7494 36.7594 22.789C36.3733 23.8491 35.7509 24.8416 34.9005 25.708Z" fill="white"/>
<path d="M114.666 19.6541C114.796 18.2041 115.917 17.2846 117.629 17.2846C119.344 17.2846 120.464 18.2041 120.594 19.6541H114.666ZM120.418 23.2343C119.98 24.3089 118.946 24.945 117.543 24.945C115.785 24.945 114.602 23.8476 114.554 22.1141H124.659C124.659 21.934 124.659 21.7835 124.659 21.6042C124.659 17.2618 122.11 14.8216 117.543 14.8216C113.108 14.8216 110.426 17.2846 110.426 21.1474C110.426 25.0339 113.15 27.4931 117.543 27.4931C120.179 27.4931 122.223 26.5895 123.483 25.0012L120.418 23.2343Z" fill="white"/>
<path d="M69.8213 19.6634C69.9551 18.2134 71.076 17.2939 72.7897 17.2939C74.5012 17.2939 75.6214 18.2134 75.7528 19.6634H69.8213ZM75.5773 23.2436C75.138 24.3212 74.1052 24.9573 72.6985 24.9573C70.9438 24.9573 69.7575 23.8569 69.7112 22.1226H79.814C79.814 21.9448 79.814 21.7951 79.814 21.6158C79.814 17.2711 77.2659 14.8301 72.6985 14.8301C68.2612 14.8301 65.5846 17.2939 65.5846 21.1567C65.5846 25.0432 68.3068 27.5024 72.6985 27.5024C75.3341 27.5024 77.3799 26.6018 78.6422 25.0112L75.5773 23.2436Z" fill="white"/>
<path d="M64.7102 12.1944H61.0662V27.1025H64.7102V12.1944Z" fill="white"/>
<path d="M80.7142 16.1554H84.3787V17.0431C85.676 15.6584 87.2339 14.9585 88.9909 14.9585C91.0147 14.9585 92.5468 15.6584 93.3379 16.85C93.9983 17.8342 94.0416 19.022 94.0416 20.5829V27.1026H90.3718V21.3741C90.3718 18.9969 89.8938 17.8995 87.8069 17.8995C85.698 17.8995 84.3787 19.1557 84.3787 21.2646V27.1026H80.7142V16.1554Z" fill="white"/>
<path d="M105.849 21.3347C105.849 23.3751 104.486 24.7134 102.376 24.7134C100.265 24.7134 98.9019 23.4207 98.9019 21.3582C98.9019 19.2653 100.247 17.9734 102.376 17.9734C104.486 17.9734 105.849 19.2881 105.849 21.3347ZM105.849 16.6556C104.923 15.6623 103.582 15.1175 101.719 15.1175C97.6989 15.1175 94.9539 17.5964 94.9539 21.3119C94.9539 24.9543 97.6799 27.5025 101.653 27.5025C103.475 27.5025 104.812 27.0419 105.849 26.0092V27.1065H109.516V11.2531L105.849 12.1985V16.6556Z" fill="white"/>
<path d="M52.7325 17.9734C54.8634 17.9734 56.2033 19.2653 56.2033 21.3582C56.2033 23.4207 54.8422 24.7134 52.7325 24.7134C50.6244 24.7134 49.2626 23.3751 49.2626 21.3347C49.2626 19.2881 50.6244 17.9734 52.7325 17.9734ZM49.2626 12.1985L45.5943 11.2531V27.1065H49.2626V26.0092C50.2946 27.0419 51.6344 27.5025 53.4575 27.5025C57.4329 27.5025 60.155 24.9543 60.155 21.3119C60.155 17.5964 57.4093 15.1175 53.3914 15.1175C51.5242 15.1175 50.1844 15.6623 49.2626 16.6556V12.1985Z" fill="white"/>
<path d="M125.555 27.107V16.1599H129.222V16.8362C130.32 15.5139 131.482 14.8558 132.804 14.8558C133.066 14.8558 133.396 14.8984 133.834 14.9417V18.0628C133.481 18.0165 133.087 18.0164 132.669 18.0164C130.538 18.0164 129.222 19.4224 129.222 21.8132V27.107H125.555Z" fill="white"/>
<path d="M151.021 22.8213C151.021 24.2035 150.52 25.2812 149.518 26.0547C148.515 26.8281 147.154 27.2148 145.436 27.2148C143.574 27.2148 142.141 26.9749 141.139 26.4951V24.7334C141.783 25.0055 142.485 25.2204 143.244 25.3779C144.003 25.5355 144.755 25.6143 145.5 25.6143C146.717 25.6143 147.634 25.3851 148.25 24.9268C148.866 24.4613 149.174 23.8167 149.174 22.9932C149.174 22.4489 149.063 22.0049 148.841 21.6611C148.626 21.3102 148.261 20.988 147.745 20.6943C147.237 20.4007 146.46 20.0677 145.414 19.6953C143.953 19.1725 142.908 18.5531 142.277 17.8369C141.654 17.1208 141.343 16.1862 141.343 15.0332C141.343 13.8229 141.798 12.8597 142.707 12.1436C143.617 11.4274 144.82 11.0693 146.316 11.0693C147.878 11.0693 149.313 11.3558 150.624 11.9287L150.055 13.5186C148.758 12.9743 147.498 12.7021 146.273 12.7021C145.307 12.7021 144.551 12.9098 144.007 13.3252C143.463 13.7406 143.19 14.3171 143.19 15.0547C143.19 15.599 143.291 16.0465 143.491 16.3975C143.692 16.7412 144.028 17.0599 144.501 17.3535C144.981 17.64 145.711 17.9587 146.692 18.3096C148.34 18.8968 149.471 19.527 150.087 20.2002C150.71 20.8734 151.021 21.7471 151.021 22.8213ZM157.768 25.7432C158.083 25.7432 158.387 25.7217 158.681 25.6787C158.974 25.6286 159.207 25.5785 159.379 25.5283V26.8926C159.186 26.9857 158.899 27.0609 158.52 27.1182C158.147 27.1826 157.811 27.2148 157.51 27.2148C155.232 27.2148 154.094 26.0153 154.094 23.6162V16.6123H152.407V15.7529L154.094 15.0117L154.846 12.498H155.877V15.2266H159.293V16.6123H155.877V23.541C155.877 24.25 156.045 24.7943 156.382 25.1738C156.718 25.5534 157.18 25.7432 157.768 25.7432ZM163.418 15.2266V22.8643C163.418 23.8239 163.636 24.54 164.073 25.0127C164.51 25.4854 165.194 25.7217 166.125 25.7217C167.357 25.7217 168.256 25.3851 168.821 24.7119C169.394 24.0387 169.681 22.9395 169.681 21.4141V15.2266H171.464V27H169.992L169.734 25.4209H169.638C169.272 26.001 168.764 26.445 168.112 26.7529C167.468 27.0609 166.73 27.2148 165.899 27.2148C164.467 27.2148 163.393 26.8747 162.677 26.1943C161.968 25.514 161.613 24.4255 161.613 22.9287V15.2266H163.418ZM183.27 25.4209H183.173C182.349 26.6169 181.118 27.2148 179.478 27.2148C177.938 27.2148 176.738 26.6885 175.879 25.6357C175.027 24.583 174.601 23.0863 174.601 21.1455C174.601 19.2048 175.03 17.6973 175.89 16.623C176.749 15.5488 177.945 15.0117 179.478 15.0117C181.075 15.0117 182.299 15.5918 183.151 16.752H183.291L183.216 15.9033L183.173 15.0762V10.2852H184.956V27H183.506L183.27 25.4209ZM179.703 25.7217C180.921 25.7217 181.801 25.3923 182.346 24.7334C182.897 24.0674 183.173 22.9967 183.173 21.5215V21.1455C183.173 19.4769 182.894 18.2881 182.335 17.5791C181.784 16.863 180.899 16.5049 179.682 16.5049C178.636 16.5049 177.834 16.9131 177.275 17.7295C176.724 18.5387 176.448 19.6846 176.448 21.167C176.448 22.6709 176.724 23.806 177.275 24.5723C177.827 25.3385 178.636 25.7217 179.703 25.7217ZM190.531 27H188.748V15.2266H190.531V27ZM188.598 12.0361C188.598 11.6279 188.698 11.3307 188.898 11.1445C189.099 10.9512 189.35 10.8545 189.65 10.8545C189.937 10.8545 190.184 10.9512 190.392 11.1445C190.599 11.3379 190.703 11.6351 190.703 12.0361C190.703 12.4372 190.599 12.738 190.392 12.9385C190.184 13.1318 189.937 13.2285 189.65 13.2285C189.35 13.2285 189.099 13.1318 188.898 12.9385C188.698 12.738 188.598 12.4372 188.598 12.0361ZM204.475 21.1025C204.475 23.0218 203.991 24.5221 203.024 25.6035C202.058 26.6777 200.722 27.2148 199.018 27.2148C197.965 27.2148 197.03 26.9678 196.214 26.4736C195.397 25.9795 194.767 25.2705 194.323 24.3467C193.879 23.4229 193.657 22.3415 193.657 21.1025C193.657 19.1833 194.137 17.6901 195.097 16.623C196.056 15.5488 197.388 15.0117 199.093 15.0117C200.74 15.0117 202.047 15.5596 203.014 16.6553C203.988 17.751 204.475 19.2334 204.475 21.1025ZM195.505 21.1025C195.505 22.6064 195.806 23.7523 196.407 24.54C197.009 25.3278 197.893 25.7217 199.061 25.7217C200.228 25.7217 201.112 25.3314 201.714 24.5508C202.323 23.763 202.627 22.6136 202.627 21.1025C202.627 19.6058 202.323 18.4707 201.714 17.6973C201.112 16.9167 200.221 16.5264 199.039 16.5264C197.872 16.5264 196.991 16.9095 196.396 17.6758C195.802 18.4421 195.505 19.5843 195.505 21.1025Z" fill="#E87D0D"/>
</svg>
