<svg width="144" height="20" viewBox="0 0 144 20" fill="none" xmlns="http://www.w3.org/2000/svg">
<path d="M105.832 0C105.091 1.9813e-05 104.43 0.101931 103.853 0.309578L103.852 0.309718C103.286 0.516171 102.812 0.801993 102.437 1.16849C102.437 1.16862 102.437 1.16876 102.436 1.16891C102.064 1.52518 101.76 1.96507 101.523 2.48433L101.522 2.48531L101.521 2.48629C101.293 3.0027 101.133 3.54592 101.042 4.11452C100.952 4.67998 100.907 5.30639 100.907 5.99428V13.9946C100.907 14.6819 100.948 15.3075 101.031 15.8722V15.8734V15.8747C101.122 16.4351 101.277 16.9772 101.497 17.4998L101.498 17.5012L101.499 17.5025C101.728 18.0222 102.025 18.4661 102.389 18.8298L102.391 18.8311L102.392 18.8324C102.767 19.1912 103.244 19.4761 103.817 19.6897L103.818 19.6901L103.819 19.6907C104.404 19.8983 105.075 20 105.831 20C106.536 20 107.164 19.8977 107.713 19.6893L107.714 19.689L107.715 19.6886C108.259 19.4744 108.711 19.1883 109.063 18.8286L109.064 18.8279L109.064 18.8272C109.414 18.4628 109.695 18.0186 109.91 17.4988C110.13 16.9756 110.282 16.4293 110.365 15.8611C110.448 15.2966 110.489 14.6746 110.489 13.9946V12.8937H108.54V14.3719C108.54 14.9771 108.492 15.51 108.399 15.9695V15.9707V15.9718C108.313 16.4292 108.167 16.8403 107.962 17.2079C107.762 17.5661 107.488 17.8362 107.13 18.0288C106.782 18.2129 106.352 18.3087 105.832 18.3087C105.252 18.3087 104.771 18.2121 104.385 18.0269L104.385 18.0266C103.997 17.833 103.707 17.563 103.501 17.2072C103.296 16.8315 103.15 16.4241 103.064 15.9825C102.978 15.5302 102.934 14.9928 102.934 14.3719V5.61698C102.934 5.12725 102.96 4.69427 103.01 4.31908V4.3188V4.31866C103.06 3.93974 103.15 3.57979 103.278 3.23795V3.23752C103.412 2.89943 103.582 2.62332 103.787 2.40455C103.997 2.18893 104.269 2.01744 104.612 1.89168L104.613 1.89126L104.615 1.89069C104.954 1.75939 105.359 1.6912 105.831 1.69118C106.35 1.6912 106.78 1.79036 107.128 1.98113L107.129 1.98211L107.131 1.98295C107.488 2.16819 107.762 2.43392 107.961 2.79195V2.79251V2.79321C108.166 3.15282 108.312 3.55974 108.398 4.01694V4.0182V4.01946C108.491 4.47897 108.539 5.01182 108.539 5.61698V6.9397H110.49V5.99428C110.49 4.03081 110.114 2.53625 109.333 1.52223C108.551 0.508214 107.365 9.90648e-06 105.832 0ZM37 0.266254V19.7004H37.1689H41.6132C42.3551 19.7004 43.0057 19.5947 43.5632 19.3782C44.1146 19.164 44.56 18.8813 44.8921 18.526C45.2209 18.1742 45.4799 17.732 45.6714 17.2047L45.6716 17.2037C45.8683 16.6748 45.9975 16.1479 46.0584 15.6237C46.1261 15.1043 46.1598 14.51 46.1598 13.8393C46.1598 13.3925 46.1179 12.9457 46.0347 12.4995C45.9511 12.044 45.8182 11.5893 45.6365 11.1357C45.4511 10.6728 45.1837 10.2549 44.8369 9.88531C44.563 9.5876 44.2477 9.34763 43.8964 9.16352C44.4387 8.83454 44.8788 8.34088 45.1985 7.67635C45.5788 6.90121 45.7709 6.10158 45.7709 5.28413C45.7709 4.76506 45.7294 4.27794 45.646 3.82303C45.5692 3.36411 45.4236 2.91333 45.2106 2.47213L45.2103 2.47171C45.0023 2.0256 44.7307 1.64117 44.3964 1.32271V1.32257C44.0576 1.00001 43.6212 0.745014 43.0929 0.553819C42.5599 0.360986 41.9549 0.266273 41.2799 0.266254H37ZM48.2438 0.266254V19.7004H50.2484V19.5316V0.266254H48.2438ZM76.9312 0.266254V6.99494C76.6467 6.66119 76.3323 6.39153 75.986 6.19281C75.5195 5.91361 75.032 5.76996 74.5336 5.76995C74.2047 5.76996 73.9133 5.80409 73.658 5.87538C73.3807 5.94499 73.1022 6.12134 72.8088 6.39107C72.5043 6.66362 72.2617 7.03462 72.0768 7.49618C71.8907 7.9609 71.7382 8.60624 71.6112 9.44198V9.44268V9.44324C71.4911 10.2753 71.4316 11.2666 71.4316 12.419V13.4731C71.4316 14.2762 71.4613 15.0024 71.5212 15.6523V15.6533V15.6543C71.5883 16.3022 71.6704 16.8477 71.7687 17.2932V17.2948L71.7694 17.2965C71.8753 17.7348 72.0084 18.123 72.1701 18.4614V18.4621V18.4628C72.3297 18.7892 72.4908 19.0516 72.6592 19.2519L72.6603 19.2531L72.6614 19.2544C72.8296 19.4463 73.0245 19.6006 73.2432 19.714C73.4517 19.8294 73.6464 19.9063 73.8317 19.9406C74.0085 19.9805 74.2014 20 74.4108 20C75.4216 20 76.2728 19.5854 76.9305 18.791V19.7004H77.0995H78.9351V0.266254H76.9312ZM112.729 0.266254V19.7004H112.898H114.734V0.266254H112.729ZM141.995 0.266254V6.99494C141.71 6.66102 141.395 6.39128 141.049 6.19253C140.582 5.91359 140.095 5.76996 139.597 5.76995C139.268 5.76996 138.977 5.80409 138.721 5.87538C138.444 5.94499 138.166 6.12134 137.872 6.39107C137.568 6.66362 137.325 7.03462 137.14 7.49618C136.954 7.9609 136.802 8.60624 136.675 9.44198V9.44268V9.44324C136.554 10.2753 136.495 11.2666 136.495 12.419V13.4731C136.495 14.2762 136.525 15.0024 136.585 15.6523V15.6533V15.6543C136.652 16.3022 136.734 16.8477 136.832 17.2932L136.833 17.2948L136.834 17.2965C136.94 17.7348 137.072 18.123 137.234 18.4614L137.235 18.4621V18.4628C137.394 18.7892 137.556 19.0516 137.724 19.2519L137.725 19.2531L137.726 19.2544C137.894 19.4462 138.089 19.6004 138.308 19.7138C138.516 19.8294 138.711 19.9063 138.897 19.9406C139.073 19.9805 139.266 20 139.476 20C140.486 20 141.338 19.5854 141.995 18.791V19.7004H142.164H144V0.266254H141.995ZM39.0268 1.89097H41.0576C41.9316 1.89098 42.5502 2.16707 42.973 2.7231C43.3957 3.27914 43.6218 4.14033 43.6218 5.31736C43.6218 5.7594 43.5855 6.16284 43.5139 6.52763C43.4426 6.89061 43.329 7.22679 43.1734 7.53782C43.0235 7.8303 42.8171 8.05602 42.5465 8.22512C42.2804 8.38406 41.9585 8.46642 41.5688 8.46641H41.5687H39.0268V1.89097ZM56.6013 5.76995C56.132 5.76996 55.719 5.81511 55.3608 5.90819C54.9952 5.99573 54.641 6.16979 54.3 6.42514C53.9587 6.67901 53.6791 7.02294 53.4619 7.44893L53.4614 7.45005L53.4608 7.45117C53.2506 7.87888 53.0852 8.4356 52.9575 9.12595C52.8292 9.8122 52.7621 10.6202 52.7547 11.5521V11.5528V13.4051V13.4065C52.7398 15.0934 52.8538 16.4096 53.1046 17.3662V17.3663L53.1048 17.3665C53.3553 18.3142 53.7516 19.0043 54.313 19.4128L54.3141 19.4137L54.3152 19.4144C54.8799 19.8115 55.6495 20 56.6124 20C57.1129 20 57.5631 19.9152 57.9581 19.7416C58.3464 19.571 58.6677 19.3465 58.9155 19.0675C59.1682 18.7911 59.3742 18.4477 59.5357 18.0409C59.7024 17.6394 59.8243 17.2368 59.9006 16.8333C59.9759 16.4343 60.0357 15.9815 60.0805 15.4741L60.0968 15.2906H58.1888L58.1878 15.4583C58.1805 16.6108 58.0016 17.4192 57.6946 17.8725L57.6942 17.8728L57.6941 17.8729C57.3824 18.3364 57.03 18.5417 56.5901 18.5417C56.2653 18.5417 56.0062 18.4951 55.8129 18.4115V18.4113C55.6301 18.3322 55.4487 18.1701 55.2757 17.9075C55.1118 17.6588 54.9772 17.2612 54.8905 16.7203C54.8905 16.7201 54.8904 16.72 54.8904 16.7199C54.8109 16.1702 54.7702 15.4603 54.7702 14.5937V12.7319H60.0964L60.1031 12.5703C60.1181 12.2116 60.1254 11.7547 60.1255 11.1984C60.1254 9.36292 59.866 8.00496 59.3116 7.11538L59.3112 7.11482C58.7625 6.22273 57.8334 5.76996 56.6013 5.76995ZM66.7452 5.76995C66.1845 5.76996 65.6409 5.90715 65.1226 6.17753C64.7376 6.37837 64.3941 6.6546 64.0921 7.00027V6.06957H62.0875V19.7004H64.0921V19.5316V8.57914C64.4048 8.19918 64.7398 7.8979 65.0993 7.68111L65.1 7.68083L65.1007 7.68069C65.482 7.44795 65.826 7.33916 66.1346 7.33915C66.5163 7.33916 66.7985 7.46608 67.0283 7.73495L67.029 7.73579L67.0298 7.73649C67.2481 7.98572 67.3769 8.42058 67.3769 9.05683V19.7004H69.4037V9.09005C69.4037 8.06367 69.1422 7.24289 68.6045 6.65788C68.0836 6.0759 67.4523 5.76996 66.7459 5.76995H66.7452ZM84.9999 5.76995C84.5305 5.76996 84.1174 5.8152 83.7591 5.90833C83.3938 5.99583 83.0397 6.16965 82.699 6.42472V6.425V6.42514C82.3577 6.679 82.0782 7.02298 81.8611 7.44893L81.8604 7.45005L81.8595 7.45117C81.6493 7.87888 81.4841 8.4356 81.3564 9.12595C81.228 9.8122 81.161 10.6202 81.1535 11.5521V11.5528V13.4051V13.4065C81.1387 15.0934 81.2526 16.4096 81.5035 17.3662V17.3663V17.3665C81.754 18.3142 82.1504 19.0043 82.7118 19.4128L82.7129 19.4137L82.7141 19.4144C83.2787 19.8115 84.0484 20 85.0112 20C85.5118 20 85.9619 19.9152 86.357 19.7416C86.7453 19.571 87.0666 19.3465 87.3143 19.0675C87.5671 18.7911 87.7731 18.4477 87.9345 18.0409C88.1012 17.6394 88.223 17.2368 88.2993 16.8333C88.3746 16.4343 88.4346 15.9815 88.4794 15.4741L88.4955 15.2906H86.5877L86.5865 15.4583C86.5792 16.6108 86.4004 17.4192 86.0934 17.8725V17.8728V17.8729C85.7817 18.3364 85.4291 18.5417 84.9892 18.5417C84.6644 18.5417 84.4053 18.4951 84.212 18.4115C84.0292 18.3323 83.848 18.1701 83.675 17.9075C83.5113 17.6589 83.3765 17.2616 83.2898 16.7213C83.2102 16.1714 83.1695 15.461 83.1695 14.5937V12.7319H88.4957L88.5024 12.5703C88.5174 12.2116 88.5247 11.7547 88.5247 11.1984C88.5247 9.36292 88.2653 8.00496 87.7109 7.11538L87.7102 7.11482C87.1614 6.22275 86.2323 5.76996 85.0002 5.76995H84.9999ZM120.909 5.76995C120.403 5.76996 119.948 5.84656 119.547 6.00353C119.157 6.15661 118.826 6.34206 118.557 6.56296C118.286 6.78479 118.065 7.10454 117.888 7.51385C117.715 7.91067 117.583 8.26425 117.491 8.57662L117.491 8.57844L117.49 8.58026C117.404 8.9007 117.341 9.33325 117.296 9.88643V9.88755V9.88854C117.259 10.43 117.236 10.8609 117.229 11.1833C117.221 11.4966 117.218 11.9485 117.218 12.541V13.229V14.3522V14.3547C117.225 14.6066 117.236 14.958 117.251 15.4093V15.4107V15.4123C117.273 15.8593 117.303 16.2069 117.341 16.461L117.342 16.4636L117.343 16.4659C117.388 16.7134 117.451 17.0186 117.533 17.3826C117.617 17.7546 117.716 18.0487 117.839 18.271L117.84 18.2729L117.842 18.275C117.964 18.4807 118.115 18.7067 118.295 18.9541L118.295 18.955L118.296 18.956C118.486 19.2092 118.709 19.408 118.961 19.5464L118.963 19.5474L118.965 19.5484C119.208 19.6736 119.489 19.7771 119.809 19.8609C120.144 19.9542 120.511 20 120.909 20C121.307 20 121.67 19.9543 121.999 19.8606C122.325 19.777 122.61 19.6736 122.853 19.5484L122.855 19.5474L122.857 19.5464C123.11 19.408 123.332 19.2092 123.522 18.956L123.523 18.955L123.523 18.9541C123.704 18.7065 123.851 18.4801 123.966 18.2729C124.099 18.0495 124.201 17.7547 124.285 17.3826C124.367 17.0188 124.426 16.7138 124.464 16.4643C124.511 16.2058 124.541 15.8571 124.556 15.4095V15.4121C124.578 14.9594 124.589 14.6061 124.589 14.3496C124.596 14.095 124.6 13.7233 124.6 13.229V12.541C124.6 11.9485 124.596 11.4966 124.589 11.1833V11.1832C124.581 10.8595 124.555 10.4282 124.511 9.88629C124.473 9.33401 124.41 8.90114 124.316 8.5783C124.231 8.26462 124.103 7.9107 123.931 7.51385C123.753 7.10484 123.528 6.7851 123.25 6.56352C122.988 6.34204 122.661 6.15646 122.271 6.00353C121.87 5.84657 121.415 5.76996 120.909 5.76995ZM95.2905 5.85435L95.1172 5.85884C94.5071 5.87448 93.9156 6.06728 93.353 6.42892C92.994 6.65501 92.7115 6.96399 92.4907 7.33284V6.06957H90.4861V19.7004H90.6551H92.4907V9.61163C92.4907 8.99726 92.6798 8.57314 93.0607 8.28078C93.4416 7.98842 94.0395 7.82749 94.8659 7.82749C94.8985 7.82749 95.0779 7.86619 95.0779 7.86619L95.2905 7.92269V5.85435ZM126.706 6.06957V16.6799C126.706 17.7065 126.964 18.5303 127.494 19.1226L127.495 19.1234L127.495 19.1243C128.024 19.6987 128.658 20 129.364 20C129.925 20 130.469 19.8628 130.987 19.5924C131.372 19.3916 131.715 19.1153 132.017 18.7695V19.7004H134.022V6.06957H132.017V17.1907C131.705 17.5708 131.366 17.8757 130.999 18.0999C130.625 18.3252 130.285 18.4308 129.975 18.4308C129.593 18.4308 129.31 18.3065 129.081 18.0455C128.861 17.788 128.733 17.349 128.733 16.7131V6.06957H126.706ZM56.6791 7.22824C56.9077 7.22825 57.1001 7.27441 57.2656 7.3634C57.4346 7.45432 57.5622 7.5731 57.6579 7.72598C57.7595 7.88835 57.8467 8.08537 57.9173 8.31793L57.9174 8.31863L57.9177 8.31934C57.9875 8.5425 58.0336 8.78879 58.055 9.05893L58.0552 9.06117L58.0553 9.06342C58.0845 9.34101 58.1066 9.63363 58.1213 9.94139V9.94153V9.94167C58.1359 10.2409 58.1395 10.54 58.1322 10.8391C58.1262 11.0868 58.1285 11.3304 58.1322 11.5733H54.7826C54.7832 10.9266 54.7859 10.3892 54.7925 10.0722C54.8071 9.7173 54.8471 9.30493 54.9131 8.83614C54.9778 8.37669 55.0829 8.06054 55.1945 7.90152C55.3261 7.72469 55.5093 7.56654 55.7507 7.4286C55.9853 7.29856 56.2924 7.22825 56.6791 7.22824ZM85.0768 7.22824H85.0776C85.3063 7.22825 85.4985 7.27441 85.664 7.3634C85.8331 7.45432 85.9607 7.5731 86.0564 7.72598C86.158 7.88835 86.2452 8.08537 86.3157 8.31793V8.31863V8.31934C86.3855 8.5425 86.4317 8.78879 86.453 9.05893V9.06117V9.06342C86.4823 9.34101 86.5043 9.63363 86.519 9.94139V9.94153C86.5336 10.2408 86.5373 10.54 86.53 10.8391C86.5239 11.0868 86.5262 11.3304 86.53 11.5733H83.1803C83.181 10.9266 83.1837 10.3892 83.1903 10.0722C83.2048 9.7173 83.2448 9.30493 83.3109 8.83614C83.3756 8.37669 83.4805 8.06054 83.5921 7.90152C83.7237 7.72466 83.9071 7.56655 84.1486 7.4286C84.3832 7.29864 84.6903 7.22825 85.0768 7.22824ZM120.909 7.22824H120.909C121.165 7.22825 121.373 7.26988 121.538 7.34588L121.542 7.34742L121.545 7.34896C121.711 7.41641 121.849 7.5333 121.967 7.71658L121.969 7.71967L121.971 7.72247C122.1 7.90588 122.204 8.12213 122.281 8.37374L122.281 8.37584L122.282 8.3778C122.365 8.62545 122.431 8.97042 122.474 9.4065V9.40804V9.40959C122.525 9.84072 122.558 10.2945 122.573 10.7709C122.588 11.2492 122.595 11.8394 122.595 12.541V13.229C122.595 15.3085 122.468 16.7405 122.236 17.4841C122.121 17.8529 121.953 18.1137 121.737 18.2841C121.522 18.4546 121.253 18.5417 120.909 18.5417C120.564 18.5417 120.296 18.4546 120.08 18.2841C119.865 18.1137 119.696 17.8529 119.581 17.4841C119.35 16.7405 119.222 15.3085 119.222 13.229V12.541C119.222 11.832 119.23 11.2417 119.244 10.7709C119.259 10.3019 119.288 9.84796 119.332 9.40889C119.384 8.96397 119.45 8.61694 119.526 8.375V8.37444V8.37374C119.603 8.12214 119.706 7.90589 119.836 7.72247L119.836 7.72135L119.837 7.72009C119.964 7.53407 120.104 7.41523 120.263 7.34812L120.265 7.34742L120.266 7.34686C120.44 7.26972 120.653 7.22825 120.909 7.22824ZM74.8669 7.33915C75.48 7.33916 76.1723 7.73248 76.9311 8.56091V17.1897C76.6184 17.5565 76.2827 17.8587 75.9211 18.0905C75.5471 18.3229 75.2142 18.4308 74.9224 18.4308C74.7803 18.4308 74.666 18.4232 74.5826 18.4105C74.5212 18.4001 74.4228 18.3661 74.3002 18.305C74.2028 18.2532 74.1231 18.1779 74.0556 18.0677C73.9839 17.9505 73.9013 17.7701 73.8149 17.5328C73.731 17.2952 73.6626 17.0022 73.612 16.6555C73.5611 16.3071 73.517 15.8635 73.4802 15.3269C73.4508 14.7911 73.4359 14.1767 73.4359 13.4841V12.4301C73.4359 11.6189 73.4544 10.9119 73.4911 10.3099C73.5278 9.70917 73.5868 9.22831 73.6652 8.87217C73.7529 8.50028 73.8366 8.20285 73.9145 7.98326C73.9961 7.76654 74.0938 7.62575 74.1917 7.54918C74.321 7.45434 74.4288 7.3984 74.5014 7.37756C74.5924 7.35353 74.7151 7.33916 74.8669 7.33915ZM139.93 7.33915H139.93C140.543 7.33916 141.236 7.73248 141.995 8.56091V17.1897C141.682 17.5564 141.346 17.8586 140.985 18.0904C140.611 18.323 140.278 18.4308 139.986 18.4308C139.844 18.4308 139.729 18.4232 139.646 18.4105C139.585 18.4001 139.486 18.3661 139.364 18.305C139.266 18.2532 139.186 18.1779 139.119 18.0677C139.047 17.9505 138.965 17.7701 138.878 17.5328C138.794 17.2952 138.726 17.0022 138.675 16.6555C138.624 16.3071 138.58 15.8635 138.544 15.3269C138.514 14.7911 138.499 14.1767 138.499 13.4841V12.4301C138.499 11.6189 138.518 10.9119 138.555 10.3099C138.591 9.70985 138.65 9.22959 138.728 8.87357C138.728 8.87343 138.728 8.87344 138.728 8.87329C138.816 8.50075 138.9 8.20313 138.978 7.98326C139.059 7.76654 139.157 7.62575 139.255 7.54918C139.384 7.45434 139.492 7.3984 139.565 7.37756C139.656 7.35353 139.778 7.33916 139.93 7.33915ZM39.0268 10.1022H41.8798C42.2521 10.1022 42.5661 10.1686 42.8279 10.296L42.8288 10.2963L42.8295 10.2967C43.1039 10.4269 43.3122 10.5967 43.4647 10.8086L43.4664 10.8111L43.4684 10.8135C43.6306 11.0227 43.7631 11.2918 43.8622 11.6239L43.8626 11.6254L43.8632 11.627C43.9708 11.964 44.0424 12.3038 44.0782 12.6473C44.1145 12.995 44.133 13.3927 44.133 13.8393C44.133 14.3374 44.1109 14.7864 44.0673 15.1858L44.0671 15.1872L44.067 15.1888C44.0309 15.5854 43.9587 15.9745 43.8504 16.3566L43.85 16.358L43.8497 16.3594C43.7497 16.7373 43.6153 17.0447 43.4514 17.2835C43.2888 17.5203 43.077 17.7122 42.8095 17.8632C42.5485 18.0033 42.2416 18.0757 41.8798 18.0757H39.0268V10.1022ZM81.3129 13.4065H81.3223V13.4066L81.3129 13.4065ZM77.0994 17.2568H77.1002C77.1001 17.257 77.0999 17.2571 77.0998 17.2573L77.0994 17.2568Z" fill="white"/>
<path d="M14.0647 0C12.1159 0 10.3322 0.760198 8.9151 2.19004C7.1212 4.00006 6.39577 6.52045 6.97321 8.95242C7.60125 11.5976 9.71702 13.6853 12.4557 14.3763C13.5801 14.66 15.2577 14.5757 16.3699 14.182L16.9193 13.9875L17.1835 14.4803C17.2863 14.6721 17.3921 14.8457 17.4854 14.9782C17.5321 15.0444 17.5747 15.0998 17.6188 15.1471C17.6408 15.1707 17.6626 15.1925 17.6932 15.2152C17.7238 15.2378 17.7598 15.2748 17.8628 15.2748C17.9508 15.2748 17.9972 15.239 18.0261 15.2161C18.0551 15.1932 18.0713 15.1736 18.0864 15.1545C18.1164 15.1164 18.1386 15.079 18.1629 15.0349C18.2114 14.9468 18.2635 14.8344 18.3209 14.7001C18.4357 14.4315 18.5692 14.0786 18.6953 13.7181C18.8213 13.3577 18.9396 12.9911 19.0223 12.6954C19.0636 12.5476 19.0961 12.418 19.1166 12.3109C19.1269 12.2573 19.1343 12.2098 19.1378 12.1632C19.1413 12.1166 19.1519 12.0782 19.1188 11.9919V11.9917C19.101 11.9454 19.0752 11.8667 19.0078 11.7927C18.9404 11.7187 18.8577 11.6711 18.7422 11.6173C18.5114 11.5097 18.1118 11.3665 17.2842 11.065C16.95 10.9432 16.6389 10.8456 16.3987 10.7846C16.2786 10.7541 16.1775 10.7326 16.0909 10.7219C16.0476 10.7166 16.009 10.7132 15.9614 10.7168C15.9138 10.7204 15.8244 10.707 15.7412 10.8413C15.7411 10.8413 15.7411 10.8414 15.741 10.8414C15.6955 10.9152 15.6991 10.9603 15.6984 10.998C15.6977 11.0358 15.7013 11.0678 15.7065 11.1015C15.7169 11.1687 15.7349 11.241 15.7593 11.3229C15.8079 11.4866 15.8821 11.6856 15.973 11.8911C16.0568 12.0807 16.1234 12.2597 16.1605 12.3852C16.1645 12.3985 16.164 12.4016 16.1673 12.4136C15.9969 12.4831 15.6923 12.5786 15.3272 12.651C14.8825 12.7392 14.3865 12.8009 14.0529 12.8009C11.3765 12.8009 9.06514 10.8322 8.59755 8.14707C8.18604 5.7841 9.56012 3.25753 11.8349 2.22002C13.2665 1.56708 15.1974 1.63072 16.6847 2.38946C17.2611 2.68352 17.9119 3.28203 18.4344 3.96317C18.9569 4.6443 19.3527 5.41231 19.4632 6.00685C19.5292 6.36194 19.6831 6.66118 19.9825 6.83138C20.2818 7.00157 20.6742 7.0585 21.259 7.09695C23.3035 7.2312 25.1287 8.72956 25.8715 10.9201C26.1017 11.6008 26.1319 11.8788 26.0842 12.8974C26.0351 13.9475 25.9838 14.1749 25.6188 14.9408C24.8596 16.534 23.2584 17.8013 21.6337 18.1094C21.5936 18.117 21.2933 18.1406 20.8695 18.1557C20.4458 18.1709 19.8718 18.1843 19.1828 18.1956C17.8048 18.218 15.9658 18.2313 13.9355 18.2313C11.9052 18.2313 10.0661 18.218 8.68814 18.1956C7.99914 18.1843 7.42532 18.1709 7.00156 18.1557C6.57781 18.1406 6.27736 18.117 6.23726 18.1094C4.61889 17.8025 3.02238 16.5422 2.24115 14.9372C1.8194 14.0707 1.82471 14.0757 1.82558 12.648C1.82688 11.0696 2.0462 10.2636 2.64322 9.52167L2.79632 9.33137L3.17557 9.60627C3.39601 9.76597 3.56592 9.88277 3.72872 9.95197C3.81012 9.98647 3.89325 10.0137 3.99686 10.0042C4.10046 9.99467 4.21675 9.92177 4.2712 9.83367C4.3801 9.65737 4.36149 9.48927 4.34046 9.25227C4.31944 9.01526 4.26961 8.71056 4.19816 8.31638C4.13172 7.94996 4.07114 7.60626 4.0271 7.34861C4.00508 7.21978 3.98715 7.11241 3.97485 7.03511C3.9687 6.99646 3.96387 6.96516 3.96081 6.94357C3.95782 6.92244 3.95704 6.89858 3.9577 6.92534C3.95439 6.7816 3.86468 6.65008 3.76099 6.57755C3.6573 6.50502 3.53936 6.4681 3.40699 6.44443C3.14224 6.39709 2.81147 6.40929 2.43193 6.47575C1.62837 6.61637 1.0987 6.71715 0.759388 6.79857C0.589738 6.83927 0.469018 6.87359 0.372848 6.91387C0.324758 6.934 0.282218 6.95408 0.235808 6.99177C0.1894 7.02946 0.124017 7.10551 0.124017 7.21427C0.124017 7.31702 0.156127 7.34429 0.175322 7.37372C0.194517 7.40316 0.213513 7.42583 0.234863 7.4496C0.277558 7.49714 0.329568 7.54669 0.392018 7.60203C0.516908 7.7127 0.682268 7.84365 0.864828 7.9748L1.32968 8.30882L1.06344 8.73937C1.06339 8.73937 1.06335 8.73937 1.0633 8.73937C0.159233 10.2008 -0.212627 12.2885 0.120369 14.0123C0.662868 16.8208 2.96265 19.1849 5.73987 19.7863C5.75302 19.7891 5.76639 19.7908 5.77983 19.7914C5.98394 19.8311 6.30781 19.8566 6.78433 19.8813C7.28528 19.9073 7.92954 19.929 8.67072 19.9464C10.1531 19.9813 12.0221 19.9992 13.8923 20C15.7625 20.0009 17.6334 19.9846 19.1193 19.9511C19.8623 19.9344 20.5089 19.9134 21.0125 19.8878C21.5161 19.8623 21.8628 19.8365 22.0653 19.7938C26.0805 18.9471 28.6806 14.7969 27.6727 10.8393C26.9591 8.03746 24.6369 5.85364 21.862 5.38606L21.0503 5.2493L20.8714 4.72315C19.9471 2.00383 17.0488 0 14.0647 0Z" fill="white"/>
</svg>
