<svg width="178" height="21" viewBox="0 0 178 21" fill="none" xmlns="http://www.w3.org/2000/svg">
<path d="M35.9253 3.29565H40.3618C42.4458 3.29565 43.9533 3.60718 44.8843 4.23022C45.8153 4.85327 46.2808 5.83797 46.2808 7.18433C46.2808 8.11532 46.0194 8.88517 45.4966 9.4939C44.981 10.0955 44.2254 10.4858 43.23 10.6648V10.7722C45.6147 11.1804 46.8071 12.4337 46.8071 14.532C46.8071 15.9356 46.3309 17.0313 45.3784 17.8191C44.4331 18.6069 43.1082 19.0007 41.4038 19.0007H35.9253V3.29565ZM37.7515 10.0203H40.7593C42.0483 10.0203 42.9757 9.81974 43.5415 9.4187C44.1073 9.0105 44.3901 8.32658 44.3901 7.36694C44.3901 6.48608 44.075 5.85229 43.4448 5.46558C42.8146 5.0717 41.812 4.87476 40.437 4.87476H37.7515V10.0203ZM37.7515 11.5671V17.4431H41.0278C42.2954 17.4431 43.2479 17.1996 43.8853 16.7126C44.5298 16.2185 44.8521 15.4486 44.8521 14.4031C44.8521 13.4291 44.5226 12.713 43.8638 12.2546C43.2121 11.7963 42.2166 11.5671 40.8774 11.5671H37.7515Z" fill="white"/>
<path d="M51.7056 19.0007H49.9224V2.28589H51.7056V19.0007Z" fill="white"/>
<path d="M60.4604 19.2156C58.7202 19.2156 57.3452 18.6856 56.3354 17.6257C55.3328 16.5658 54.8315 15.0942 54.8315 13.2107C54.8315 11.3129 55.297 9.80542 56.228 8.68823C57.1662 7.57104 58.423 7.01245 59.9985 7.01245C61.4738 7.01245 62.6411 7.49943 63.5005 8.47339C64.3599 9.44019 64.7896 10.7185 64.7896 12.3083V13.4363H56.6792C56.715 14.8184 57.0623 15.8676 57.7212 16.5837C58.3872 17.2999 59.3218 17.658 60.5249 17.658C61.7925 17.658 63.0457 17.393 64.2847 16.863V18.4529C63.6545 18.725 63.0565 18.9184 62.4907 19.033C61.9321 19.1547 61.2554 19.2156 60.4604 19.2156ZM59.9771 8.50562C59.0317 8.50562 58.2762 8.81356 57.7104 9.42944C57.1519 10.0453 56.8224 10.8975 56.7222 11.9861H62.8774C62.8774 10.8617 62.6268 10.0024 62.1255 9.40796C61.6242 8.8064 60.908 8.50562 59.9771 8.50562Z" fill="white"/>
<path d="M75.897 19.0007V11.3845C75.897 10.4249 75.6785 9.70874 75.2417 9.23608C74.8049 8.76343 74.1209 8.5271 73.1899 8.5271C71.9582 8.5271 71.0558 8.86011 70.4829 9.52612C69.91 10.1921 69.6235 11.2914 69.6235 12.824V19.0007H67.8403V7.22729H69.2905L69.5806 8.83862H69.6665C70.0317 8.25854 70.5438 7.81095 71.2026 7.49585C71.8615 7.17358 72.5955 7.01245 73.4048 7.01245C74.8228 7.01245 75.8898 7.3562 76.606 8.0437C77.3221 8.72404 77.6802 9.81616 77.6802 11.3201V19.0007H75.897Z" fill="white"/>
<path d="M89.3677 17.4216H89.271C88.4474 18.6176 87.2157 19.2156 85.5757 19.2156C84.036 19.2156 82.8364 18.6892 81.9771 17.6365C81.1248 16.5837 80.6987 15.087 80.6987 13.1462C80.6987 11.2055 81.1284 9.698 81.9878 8.62378C82.8472 7.54956 84.0431 7.01245 85.5757 7.01245C87.1727 7.01245 88.3973 7.59253 89.2495 8.75269H89.3892L89.314 7.90405L89.271 7.0769V2.28589H91.0542V19.0007H89.604L89.3677 17.4216ZM85.8013 17.7224C87.0187 17.7224 87.8996 17.393 88.4438 16.7341C88.9953 16.0681 89.271 14.9975 89.271 13.5222V13.1462C89.271 11.4776 88.9917 10.2888 88.4331 9.57983C87.8817 8.86369 86.9972 8.50562 85.7798 8.50562C84.7342 8.50562 83.9321 8.91382 83.3735 9.73022C82.8221 10.5395 82.5464 11.6853 82.5464 13.1677C82.5464 14.6716 82.8221 15.8067 83.3735 16.573C83.925 17.3393 84.7342 17.7224 85.8013 17.7224Z" fill="white"/>
<path d="M99.8198 19.2156C98.0796 19.2156 96.7046 18.6856 95.6948 17.6257C94.6922 16.5658 94.1909 15.0942 94.1909 13.2107C94.1909 11.3129 94.6564 9.80542 95.5874 8.68823C96.5256 7.57104 97.7824 7.01245 99.3579 7.01245C100.833 7.01245 102 7.49943 102.86 8.47339C103.719 9.44019 104.149 10.7185 104.149 12.3083V13.4363H96.0386C96.0744 14.8184 96.4217 15.8676 97.0806 16.5837C97.7466 17.2999 98.6812 17.658 99.8843 17.658C101.152 17.658 102.405 17.393 103.644 16.863V18.4529C103.014 18.725 102.416 18.9184 101.85 19.033C101.292 19.1547 100.615 19.2156 99.8198 19.2156ZM99.3364 8.50562C98.3911 8.50562 97.6356 8.81356 97.0698 9.42944C96.5112 10.0453 96.1818 10.8975 96.0815 11.9861H102.237C102.237 10.8617 101.986 10.0024 101.485 9.40796C100.984 8.8064 100.267 8.50562 99.3364 8.50562Z" fill="white"/>
<path d="M112.571 7.01245C113.094 7.01245 113.563 7.05542 113.978 7.14136L113.731 8.79565C113.244 8.68823 112.814 8.63452 112.442 8.63452C111.489 8.63452 110.673 9.02124 109.993 9.79468C109.319 10.5681 108.983 11.5313 108.983 12.6843V19.0007H107.2V7.22729H108.671L108.875 9.40796H108.961C109.398 8.64168 109.925 8.05086 110.541 7.6355C111.156 7.22013 111.833 7.01245 112.571 7.01245Z" fill="white"/>
<path d="M128.888 4.70288C127.162 4.70288 125.798 5.27938 124.795 6.43237C123.8 7.57821 123.302 9.15015 123.302 11.1482C123.302 13.2035 123.782 14.7934 124.742 15.9177C125.708 17.0349 127.083 17.5935 128.867 17.5935C129.962 17.5935 131.212 17.3966 132.616 17.0027V18.6033C131.527 19.0115 130.184 19.2156 128.587 19.2156C126.274 19.2156 124.487 18.5138 123.227 17.1101C121.974 15.7065 121.347 13.712 121.347 11.1267C121.347 9.50822 121.648 8.09025 122.25 6.8728C122.858 5.65535 123.732 4.7172 124.871 4.05835C126.016 3.3995 127.363 3.07007 128.91 3.07007C130.557 3.07007 131.996 3.37085 133.228 3.97241L132.455 5.54077C131.266 4.98218 130.077 4.70288 128.888 4.70288Z" fill="#FFFFFF"/>
<path d="M137.557 19.0007H135.774V2.28589H137.557V19.0007Z" fill="#FFFFFF"/>
<path d="M151.5 13.1033C151.5 15.0225 151.017 16.5229 150.05 17.6042C149.083 18.6785 147.748 19.2156 146.043 19.2156C144.991 19.2156 144.056 18.9685 143.24 18.4744C142.423 17.9802 141.793 17.2712 141.349 16.3474C140.905 15.4236 140.683 14.3422 140.683 13.1033C140.683 11.184 141.163 9.69084 142.123 8.62378C143.082 7.54956 144.414 7.01245 146.119 7.01245C147.766 7.01245 149.073 7.5603 150.04 8.65601C151.014 9.75171 151.5 11.2341 151.5 13.1033ZM142.531 13.1033C142.531 14.6072 142.832 15.753 143.433 16.5408C144.035 17.3285 144.919 17.7224 146.086 17.7224C147.254 17.7224 148.138 17.3321 148.74 16.5515C149.348 15.7638 149.653 14.6143 149.653 13.1033C149.653 11.6065 149.348 10.4714 148.74 9.698C148.138 8.9174 147.247 8.5271 146.065 8.5271C144.898 8.5271 144.017 8.91024 143.422 9.67651C142.828 10.4428 142.531 11.585 142.531 13.1033Z" fill="#FFFFFF"/>
<path d="M156.313 7.22729V14.865C156.313 15.8246 156.531 16.5408 156.968 17.0134C157.405 17.4861 158.089 17.7224 159.02 17.7224C160.252 17.7224 161.151 17.3858 161.716 16.7126C162.289 16.0395 162.576 14.9402 162.576 13.4148V7.22729H164.359V19.0007H162.887L162.629 17.4216H162.533C162.167 18.0017 161.659 18.4457 161.007 18.7537C160.363 19.0616 159.625 19.2156 158.794 19.2156C157.362 19.2156 156.288 18.8754 155.572 18.1951C154.863 17.5147 154.508 16.4262 154.508 14.9294V7.22729H156.313Z" fill="#FFFFFF"/>
<path d="M176.165 17.4216H176.068C175.244 18.6176 174.013 19.2156 172.373 19.2156C170.833 19.2156 169.633 18.6892 168.774 17.6365C167.922 16.5837 167.496 15.087 167.496 13.1462C167.496 11.2055 167.925 9.698 168.785 8.62378C169.644 7.54956 170.84 7.01245 172.373 7.01245C173.97 7.01245 175.194 7.59253 176.046 8.75269H176.186L176.111 7.90405L176.068 7.0769V2.28589H177.851V19.0007H176.401L176.165 17.4216ZM172.598 17.7224C173.816 17.7224 174.696 17.393 175.241 16.7341C175.792 16.0681 176.068 14.9975 176.068 13.5222V13.1462C176.068 11.4776 175.789 10.2888 175.23 9.57983C174.679 8.86369 173.794 8.50562 172.577 8.50562C171.531 8.50562 170.729 8.91382 170.17 9.73022C169.619 10.5395 169.343 11.6853 169.343 13.1677C169.343 14.6716 169.619 15.8067 170.17 16.573C170.722 17.3393 171.531 17.7224 172.598 17.7224Z" fill="#FFFFFF"/>
<path d="M14.8113 0.750732C12.8625 0.750732 11.0788 1.51093 9.66168 2.94077C7.86778 4.75079 7.14235 7.27118 7.71979 9.70315C8.34783 12.3483 10.4636 14.436 13.2023 15.127C14.3267 15.4107 16.0043 15.3264 17.1165 14.9327L17.6659 14.7382L17.9301 15.231C18.0329 15.4228 18.1387 15.5964 18.232 15.7289C18.2787 15.7951 18.3213 15.8505 18.3654 15.8978C18.3874 15.9214 18.4092 15.9432 18.4398 15.9659C18.4704 15.9885 18.5064 16.0255 18.6094 16.0255C18.6974 16.0255 18.7438 15.9897 18.7727 15.9668C18.8017 15.9439 18.8179 15.9243 18.833 15.9052C18.863 15.8671 18.8852 15.8297 18.9095 15.7856C18.958 15.6975 19.0101 15.5851 19.0675 15.4508C19.1823 15.1822 19.3158 14.8293 19.4419 14.4688C19.5679 14.1084 19.6862 13.7418 19.7689 13.4461C19.8102 13.2983 19.8427 13.1687 19.8632 13.0616C19.8735 13.008 19.8809 12.9605 19.8844 12.9139C19.8879 12.8673 19.8985 12.8289 19.8654 12.7426V12.7424C19.8476 12.6961 19.8218 12.6174 19.7544 12.5434C19.687 12.4694 19.6043 12.4218 19.4888 12.368C19.258 12.2604 18.8584 12.1172 18.0308 11.8157C17.6966 11.6939 17.3855 11.5963 17.1453 11.5353C17.0252 11.5048 16.9241 11.4833 16.8375 11.4726C16.7942 11.4673 16.7556 11.4639 16.708 11.4675C16.6604 11.4711 16.571 11.4577 16.4878 11.592C16.4877 11.592 16.4877 11.5921 16.4876 11.5921C16.4421 11.6659 16.4457 11.711 16.445 11.7487C16.4443 11.7865 16.4479 11.8185 16.4531 11.8522C16.4635 11.9194 16.4815 11.9917 16.5059 12.0736C16.5545 12.2373 16.6287 12.4363 16.7196 12.6418C16.8034 12.8314 16.87 13.0104 16.9071 13.1359C16.9111 13.1492 16.9106 13.1523 16.9139 13.1643C16.7435 13.2338 16.4389 13.3293 16.0738 13.4017C15.6291 13.4899 15.1331 13.5516 14.7995 13.5516C12.1231 13.5516 9.81172 11.5829 9.34413 8.8978C8.93262 6.53483 10.3067 4.00826 12.5815 2.97075C14.0131 2.31781 15.944 2.38145 17.4313 3.14019C18.0077 3.43425 18.6585 4.03276 19.181 4.7139C19.7035 5.39503 20.0993 6.16304 20.2098 6.75758C20.2758 7.11267 20.4297 7.41191 20.7291 7.58211C21.0284 7.7523 21.4208 7.80923 22.0056 7.84768C24.0501 7.98193 25.8753 9.48029 26.6181 11.6708C26.8483 12.3515 26.8785 12.6295 26.8308 13.6481C26.7817 14.6982 26.7304 14.9256 26.3654 15.6915C25.6062 17.2847 24.005 18.552 22.3803 18.8601C22.3402 18.8677 22.0399 18.8913 21.6161 18.9064C21.1924 18.9216 20.6184 18.935 19.9294 18.9463C18.5514 18.9687 16.7124 18.982 14.6821 18.982C12.6518 18.982 10.8127 18.9687 9.43472 18.9463C8.74572 18.935 8.1719 18.9216 7.74814 18.9064C7.32439 18.8913 7.02394 18.8677 6.98384 18.8601C5.36547 18.5532 3.76896 17.2929 2.98773 15.6879C2.56598 14.8214 2.57129 14.8264 2.57216 13.3987C2.57346 11.8203 2.79278 11.0143 3.3898 10.2724L3.5429 10.0821L3.92215 10.357C4.14259 10.5167 4.3125 10.6335 4.4753 10.7027C4.5567 10.7372 4.63983 10.7644 4.74344 10.7549C4.84704 10.7454 4.96333 10.6725 5.01778 10.5844C5.12668 10.4081 5.10807 10.24 5.08704 10.003C5.06602 9.76599 5.01619 9.46129 4.94474 9.06711C4.8783 8.70069 4.81772 8.35699 4.77368 8.09934C4.75166 7.97051 4.73373 7.86314 4.72143 7.78584C4.71528 7.74719 4.71045 7.71589 4.70739 7.6943C4.7044 7.67317 4.70362 7.64931 4.70428 7.67607C4.70097 7.53233 4.61126 7.40081 4.50757 7.32828C4.40388 7.25575 4.28594 7.21883 4.15357 7.19516C3.88882 7.14782 3.55805 7.16002 3.17851 7.22648C2.37495 7.3671 1.84528 7.46788 1.50597 7.5493C1.33632 7.59 1.2156 7.62432 1.11943 7.6646C1.07134 7.68473 1.0288 7.70481 0.98239 7.7425C0.935982 7.78019 0.870599 7.85624 0.870599 7.965C0.870599 8.06775 0.902709 8.09502 0.921904 8.12445C0.941099 8.15389 0.960095 8.17656 0.981445 8.20033C1.02414 8.24787 1.07615 8.29742 1.1386 8.35276C1.26349 8.46343 1.42885 8.59438 1.61141 8.72553L2.07626 9.05955L1.81002 9.4901C1.80997 9.4901 1.80993 9.4901 1.80988 9.4901C0.905815 10.9515 0.533955 13.0392 0.866951 14.763C1.40945 17.5715 3.70923 19.9356 6.48645 20.537C6.4996 20.5398 6.51297 20.5415 6.52641 20.5421C6.73052 20.5818 7.05439 20.6073 7.53091 20.632C8.03186 20.658 8.67612 20.6797 9.4173 20.6971C10.8997 20.732 12.7687 20.7499 14.6389 20.7507C16.5091 20.7516 18.38 20.7353 19.8659 20.7018C20.6089 20.6851 21.2555 20.6641 21.7591 20.6385C22.2627 20.613 22.6094 20.5872 22.8119 20.5445C26.8271 19.6978 29.4272 15.5476 28.4193 11.59C27.7057 8.78819 25.3835 6.60437 22.6086 6.13679L21.7969 6.00003L21.618 5.47388C20.6937 2.75456 17.7954 0.750732 14.8113 0.750732Z" fill="white"/>
</svg>
