<svg width="107" height="20" viewBox="0 0 107 20" fill="none" xmlns="http://www.w3.org/2000/svg">
<path d="M68.832 0C68.091 1.9813e-05 67.43 0.101931 66.853 0.309578L66.852 0.309718C66.286 0.516171 65.812 0.801993 65.437 1.16849C65.437 1.16862 65.437 1.16876 65.436 1.16891C65.064 1.52518 64.76 1.96507 64.523 2.48433L64.522 2.48531L64.521 2.48629C64.293 3.0027 64.133 3.54592 64.042 4.11452C63.952 4.67998 63.907 5.30639 63.907 5.99428V13.9946C63.907 14.6819 63.948 15.3075 64.031 15.8722V15.8734V15.8747C64.122 16.4351 64.277 16.9772 64.497 17.4998L64.498 17.5012L64.499 17.5025C64.728 18.0222 65.025 18.4661 65.389 18.8298L65.391 18.8311L65.392 18.8324C65.767 19.1912 66.244 19.4761 66.817 19.6897L66.818 19.6901L66.819 19.6907C67.404 19.8983 68.075 20 68.831 20C69.536 20 70.164 19.8977 70.713 19.6893L70.714 19.689L70.715 19.6886C71.259 19.4744 71.711 19.1883 72.063 18.8286L72.064 18.8279V18.8272C72.414 18.4628 72.695 18.0186 72.91 17.4988C73.13 16.9756 73.282 16.4293 73.365 15.8611C73.448 15.2966 73.489 14.6746 73.489 13.9946V12.8937H71.54V14.3719C71.54 14.9771 71.492 15.51 71.399 15.9695V15.9707V15.9718C71.313 16.4292 71.167 16.8403 70.962 17.2079C70.762 17.5661 70.488 17.8362 70.13 18.0288C69.782 18.2129 69.352 18.3087 68.832 18.3087C68.252 18.3087 67.771 18.2121 67.385 18.0269V18.0266C66.997 17.833 66.707 17.563 66.501 17.2072C66.296 16.8315 66.15 16.4241 66.064 15.9825C65.978 15.5302 65.934 14.9928 65.934 14.3719V5.61698C65.934 5.12725 65.96 4.69427 66.01 4.31908V4.3188V4.31866C66.06 3.93974 66.15 3.57979 66.278 3.23795V3.23752C66.412 2.89943 66.582 2.62332 66.787 2.40455C66.997 2.18893 67.269 2.01744 67.612 1.89168L67.613 1.89126L67.615 1.89069C67.954 1.75939 68.359 1.6912 68.831 1.69118C69.35 1.6912 69.78 1.79036 70.128 1.98113L70.129 1.98211L70.131 1.98295C70.488 2.16819 70.762 2.43392 70.961 2.79195V2.79251V2.79321C71.166 3.15282 71.312 3.55974 71.398 4.01694V4.0182V4.01946C71.491 4.47897 71.539 5.01182 71.539 5.61698V6.9397H73.49V5.99428C73.49 4.03081 73.114 2.53625 72.333 1.52223C71.551 0.508214 70.365 9.90648e-06 68.832 0ZM0 0.266254V19.7004H0.1689H4.6132C5.3551 19.7004 6.0057 19.5947 6.5632 19.3782C7.1146 19.164 7.56 18.8813 7.8921 18.526C8.2209 18.1742 8.4799 17.732 8.6714 17.2047L8.6716 17.2037C8.8683 16.6748 8.9975 16.1479 9.0584 15.6237C9.1261 15.1043 9.1598 14.51 9.1598 13.8393C9.1598 13.3925 9.1179 12.9457 9.0347 12.4995C8.9511 12.044 8.8182 11.5893 8.6365 11.1357C8.4511 10.6728 8.1837 10.2549 7.8369 9.88531C7.563 9.5876 7.2477 9.34763 6.8964 9.16352C7.4387 8.83454 7.8788 8.34088 8.1985 7.67635C8.5788 6.90121 8.7709 6.10158 8.7709 5.28413C8.7709 4.76506 8.7294 4.27794 8.646 3.82303C8.5692 3.36411 8.4236 2.91333 8.2106 2.47213L8.2103 2.47171C8.0023 2.0256 7.7307 1.64117 7.3964 1.32271V1.32257C7.0576 1.00001 6.6212 0.745014 6.0929 0.553819C5.5599 0.360986 4.9549 0.266273 4.2799 0.266254H0ZM11.2438 0.266254V19.7004H13.2484V19.5316V0.266254H11.2438ZM39.9312 0.266254V6.99494C39.6467 6.66119 39.3323 6.39153 38.986 6.19281C38.5195 5.91361 38.032 5.76996 37.5336 5.76995C37.2047 5.76996 36.9133 5.80409 36.658 5.87538C36.3807 5.94499 36.1022 6.12134 35.8088 6.39107C35.5043 6.66362 35.2617 7.03462 35.0768 7.49618C34.8907 7.9609 34.7382 8.60624 34.6112 9.44198V9.44268V9.44324C34.4911 10.2753 34.4316 11.2666 34.4316 12.419V13.4731C34.4316 14.2762 34.4613 15.0024 34.5212 15.6523V15.6533V15.6543C34.5883 16.3022 34.6704 16.8477 34.7687 17.2932V17.2948L34.7694 17.2965C34.8753 17.7348 35.0084 18.123 35.1701 18.4614V18.4621V18.4628C35.3297 18.7892 35.4908 19.0516 35.6592 19.2519L35.6603 19.2531L35.6614 19.2544C35.8296 19.4463 36.0245 19.6006 36.2432 19.714C36.4517 19.8294 36.6464 19.9063 36.8317 19.9406C37.0085 19.9805 37.2014 20 37.4108 20C38.4216 20 39.2728 19.5854 39.9305 18.791V19.7004H40.0995H41.9351V0.266254H39.9312ZM75.729 0.266254V19.7004H75.898H77.734V0.266254H75.729ZM104.995 0.266254V6.99494C104.71 6.66102 104.395 6.39128 104.049 6.19253C103.582 5.91359 103.095 5.76996 102.597 5.76995C102.268 5.76996 101.977 5.80409 101.721 5.87538C101.444 5.94499 101.166 6.12134 100.872 6.39107C100.568 6.66362 100.325 7.03462 100.14 7.49618C99.954 7.9609 99.802 8.60624 99.675 9.44198V9.44268V9.44324C99.554 10.2753 99.495 11.2666 99.495 12.419V13.4731C99.495 14.2762 99.525 15.0024 99.585 15.6523V15.6533V15.6543C99.652 16.3022 99.734 16.8477 99.832 17.2932L99.833 17.2948L99.834 17.2965C99.94 17.7348 100.072 18.123 100.234 18.4614L100.235 18.4621V18.4628C100.394 18.7892 100.556 19.0516 100.724 19.2519L100.725 19.2531L100.726 19.2544C100.894 19.4462 101.089 19.6004 101.308 19.7138C101.516 19.8294 101.711 19.9063 101.897 19.9406C102.073 19.9805 102.266 20 102.476 20C103.486 20 104.338 19.5854 104.995 18.791V19.7004H105.164H107V0.266254H104.995ZM2.0268 1.89097H4.0576C4.9316 1.89098 5.5502 2.16707 5.973 2.7231C6.3957 3.27914 6.6218 4.14033 6.6218 5.31736C6.6218 5.7594 6.5855 6.16284 6.5139 6.52763C6.4426 6.89061 6.329 7.22679 6.1734 7.53782C6.0235 7.8303 5.8171 8.05602 5.5465 8.22512C5.2804 8.38406 4.9585 8.46642 4.5688 8.46641H4.5687H2.0268V1.89097ZM19.6013 5.76995C19.132 5.76996 18.719 5.81511 18.3608 5.90819C17.9952 5.99573 17.641 6.16979 17.3 6.42514C16.9587 6.67901 16.6791 7.02294 16.4619 7.44893L16.4614 7.45005L16.4608 7.45117C16.2506 7.87888 16.0852 8.4356 15.9575 9.12595C15.8292 9.8122 15.7621 10.6202 15.7547 11.5521V11.5528V13.4051V13.4065C15.7398 15.0934 15.8538 16.4096 16.1046 17.3662V17.3663L16.1048 17.3665C16.3553 18.3142 16.7516 19.0043 17.313 19.4128L17.3141 19.4137L17.3152 19.4144C17.8799 19.8115 18.6495 20 19.6124 20C20.1129 20 20.5631 19.9152 20.9581 19.7416C21.3464 19.571 21.6677 19.3465 21.9155 19.0675C22.1682 18.7911 22.3742 18.4477 22.5357 18.0409C22.7024 17.6394 22.8243 17.2368 22.9006 16.8333C22.9759 16.4343 23.0357 15.9815 23.0805 15.4741L23.0968 15.2906H21.1888L21.1878 15.4583C21.1805 16.6108 21.0016 17.4192 20.6946 17.8725L20.6942 17.8728L20.6941 17.8729C20.3824 18.3364 20.03 18.5417 19.5901 18.5417C19.2653 18.5417 19.0062 18.4951 18.8129 18.4115V18.4113C18.6301 18.3322 18.4487 18.1701 18.2757 17.9075C18.1118 17.6588 17.9772 17.2612 17.8905 16.7203C17.8905 16.7201 17.8904 16.72 17.8904 16.7199C17.8109 16.1702 17.7702 15.4603 17.7702 14.5937V12.7319H23.0964L23.1031 12.5703C23.1181 12.2116 23.1254 11.7547 23.1255 11.1984C23.1254 9.36292 22.866 8.00496 22.3116 7.11538L22.3112 7.11482C21.7625 6.22273 20.8334 5.76996 19.6013 5.76995ZM29.7452 5.76995C29.1845 5.76996 28.6409 5.90715 28.1226 6.17753C27.7376 6.37837 27.3941 6.6546 27.0921 7.00027V6.06957H25.0875V19.7004H27.0921V19.5316V8.57914C27.4048 8.19918 27.7398 7.8979 28.0993 7.68111L28.1 7.68083L28.1007 7.68069C28.482 7.44795 28.826 7.33916 29.1346 7.33915C29.5163 7.33916 29.7985 7.46608 30.0283 7.73495L30.029 7.73579L30.0298 7.73649C30.2481 7.98572 30.3769 8.42058 30.3769 9.05683V19.7004H32.4037V9.09005C32.4037 8.06367 32.1422 7.24289 31.6045 6.65788C31.0836 6.0759 30.4523 5.76996 29.7459 5.76995H29.7452ZM47.9999 5.76995C47.5305 5.76996 47.1174 5.8152 46.7591 5.90833C46.3938 5.99583 46.0397 6.16965 45.699 6.42472V6.425V6.42514C45.3577 6.679 45.0782 7.02298 44.8611 7.44893L44.8604 7.45005L44.8595 7.45117C44.6493 7.87888 44.4841 8.4356 44.3564 9.12595C44.228 9.8122 44.161 10.6202 44.1535 11.5521V11.5528V13.4051V13.4065C44.1387 15.0934 44.2526 16.4096 44.5035 17.3662V17.3663V17.3665C44.754 18.3142 45.1504 19.0043 45.7118 19.4128L45.7129 19.4137L45.7141 19.4144C46.2787 19.8115 47.0484 20 48.0112 20C48.5118 20 48.9619 19.9152 49.357 19.7416C49.7453 19.571 50.0666 19.3465 50.3143 19.0675C50.5671 18.7911 50.7731 18.4477 50.9345 18.0409C51.1012 17.6394 51.223 17.2368 51.2993 16.8333C51.3746 16.4343 51.4346 15.9815 51.4794 15.4741L51.4955 15.2906H49.5877L49.5865 15.4583C49.5792 16.6108 49.4004 17.4192 49.0934 17.8725V17.8728V17.8729C48.7817 18.3364 48.4291 18.5417 47.9892 18.5417C47.6644 18.5417 47.4053 18.4951 47.212 18.4115C47.0292 18.3323 46.848 18.1701 46.675 17.9075C46.5113 17.6589 46.3765 17.2616 46.2898 16.7213C46.2102 16.1714 46.1695 15.461 46.1695 14.5937V12.7319H51.4957L51.5024 12.5703C51.5174 12.2116 51.5247 11.7547 51.5247 11.1984C51.5247 9.36292 51.2653 8.00496 50.7109 7.11538L50.7102 7.11482C50.1614 6.22275 49.2323 5.76996 48.0002 5.76995H47.9999ZM83.909 5.76995C83.403 5.76996 82.948 5.84656 82.547 6.00353C82.157 6.15661 81.826 6.34206 81.557 6.56296C81.286 6.78479 81.065 7.10454 80.888 7.51385C80.715 7.91067 80.583 8.26425 80.491 8.57662V8.57844L80.49 8.58026C80.404 8.9007 80.341 9.33325 80.296 9.88643V9.88755V9.88854C80.259 10.43 80.236 10.8609 80.229 11.1833C80.221 11.4966 80.218 11.9485 80.218 12.541V13.229V14.3522V14.3547C80.225 14.6066 80.236 14.958 80.251 15.4093V15.4107V15.4123C80.273 15.8593 80.303 16.2069 80.341 16.461L80.342 16.4636L80.343 16.4659C80.388 16.7134 80.451 17.0186 80.533 17.3826C80.617 17.7546 80.716 18.0487 80.839 18.271L80.84 18.2729L80.842 18.275C80.964 18.4807 81.115 18.7067 81.295 18.9541V18.955L81.296 18.956C81.486 19.2092 81.709 19.408 81.961 19.5464L81.963 19.5474L81.965 19.5484C82.208 19.6736 82.489 19.7771 82.809 19.8609C83.144 19.9542 83.511 20 83.909 20C84.307 20 84.67 19.9543 84.999 19.8606C85.325 19.777 85.61 19.6736 85.853 19.5484L85.855 19.5474L85.857 19.5464C86.11 19.408 86.332 19.2092 86.522 18.956L86.523 18.955V18.9541C86.704 18.7065 86.851 18.4801 86.966 18.2729C87.099 18.0495 87.201 17.7547 87.285 17.3826C87.367 17.0188 87.426 16.7138 87.464 16.4643C87.511 16.2058 87.541 15.8571 87.556 15.4095V15.4121C87.578 14.9594 87.589 14.6061 87.589 14.3496C87.596 14.095 87.6 13.7233 87.6 13.229V12.541C87.6 11.9485 87.596 11.4966 87.589 11.1833V11.1832C87.581 10.8595 87.555 10.4282 87.511 9.88629C87.473 9.33401 87.41 8.90114 87.316 8.5783C87.231 8.26462 87.103 7.9107 86.931 7.51385C86.753 7.10484 86.528 6.7851 86.25 6.56352C85.988 6.34204 85.661 6.15646 85.271 6.00353C84.87 5.84657 84.415 5.76996 83.909 5.76995ZM58.2905 5.85435L58.1172 5.85884C57.5071 5.87448 56.9156 6.06728 56.353 6.42892C55.994 6.65501 55.7115 6.96399 55.4907 7.33284V6.06957H53.4861V19.7004H53.6551H55.4907V9.61163C55.4907 8.99726 55.6798 8.57314 56.0607 8.28078C56.4416 7.98842 57.0395 7.82749 57.8659 7.82749C57.8985 7.82749 58.0779 7.86619 58.0779 7.86619L58.2905 7.92269V5.85435ZM89.706 6.06957V16.6799C89.706 17.7065 89.964 18.5303 90.494 19.1226L90.495 19.1234V19.1243C91.024 19.6987 91.658 20 92.364 20C92.925 20 93.469 19.8628 93.987 19.5924C94.372 19.3916 94.715 19.1153 95.017 18.7695V19.7004H97.022V6.06957H95.017V17.1907C94.705 17.5708 94.366 17.8757 93.999 18.0999C93.625 18.3252 93.285 18.4308 92.975 18.4308C92.593 18.4308 92.31 18.3065 92.081 18.0455C91.861 17.788 91.733 17.349 91.733 16.7131V6.06957H89.706ZM19.6791 7.22824C19.9077 7.22825 20.1001 7.27441 20.2656 7.3634C20.4346 7.45432 20.5622 7.5731 20.6579 7.72598C20.7595 7.88835 20.8467 8.08537 20.9173 8.31793L20.9174 8.31863L20.9177 8.31934C20.9875 8.5425 21.0336 8.78879 21.055 9.05893L21.0552 9.06117L21.0553 9.06342C21.0845 9.34101 21.1066 9.63363 21.1213 9.94139V9.94153V9.94167C21.1359 10.2409 21.1395 10.54 21.1322 10.8391C21.1262 11.0868 21.1285 11.3304 21.1322 11.5733H17.7826C17.7832 10.9266 17.7859 10.3892 17.7925 10.0722C17.8071 9.7173 17.8471 9.30493 17.9131 8.83614C17.9778 8.37669 18.0829 8.06054 18.1945 7.90152C18.3261 7.72469 18.5093 7.56654 18.7507 7.4286C18.9853 7.29856 19.2924 7.22825 19.6791 7.22824ZM48.0768 7.22824H48.0776C48.3063 7.22825 48.4985 7.27441 48.664 7.3634C48.8331 7.45432 48.9607 7.5731 49.0564 7.72598C49.158 7.88835 49.2452 8.08537 49.3157 8.31793V8.31863V8.31934C49.3855 8.5425 49.4317 8.78879 49.453 9.05893V9.06117V9.06342C49.4823 9.34101 49.5043 9.63363 49.519 9.94139V9.94153C49.5336 10.2408 49.5373 10.54 49.53 10.8391C49.5239 11.0868 49.5262 11.3304 49.53 11.5733H46.1803C46.181 10.9266 46.1837 10.3892 46.1903 10.0722C46.2048 9.7173 46.2448 9.30493 46.3109 8.83614C46.3756 8.37669 46.4805 8.06054 46.5921 7.90152C46.7237 7.72466 46.9071 7.56655 47.1486 7.4286C47.3832 7.29864 47.6903 7.22825 48.0768 7.22824ZM83.909 7.22824C84.165 7.22825 84.373 7.26988 84.538 7.34588L84.542 7.34742L84.545 7.34896C84.711 7.41641 84.849 7.5333 84.967 7.71658L84.969 7.71967L84.971 7.72247C85.1 7.90588 85.204 8.12213 85.281 8.37374V8.37584L85.282 8.3778C85.365 8.62545 85.431 8.97042 85.474 9.4065V9.40804V9.40959C85.525 9.84072 85.558 10.2945 85.573 10.7709C85.588 11.2492 85.595 11.8394 85.595 12.541V13.229C85.595 15.3085 85.468 16.7405 85.236 17.4841C85.121 17.8529 84.953 18.1137 84.737 18.2841C84.522 18.4546 84.253 18.5417 83.909 18.5417C83.564 18.5417 83.296 18.4546 83.08 18.2841C82.865 18.1137 82.696 17.8529 82.581 17.4841C82.35 16.7405 82.222 15.3085 82.222 13.229V12.541C82.222 11.832 82.23 11.2417 82.244 10.7709C82.259 10.3019 82.288 9.84796 82.332 9.40889C82.384 8.96397 82.45 8.61694 82.526 8.375V8.37444V8.37374C82.603 8.12214 82.706 7.90589 82.836 7.72247V7.72135L82.837 7.72009C82.964 7.53407 83.104 7.41523 83.263 7.34812L83.265 7.34742L83.266 7.34686C83.44 7.26972 83.653 7.22825 83.909 7.22824ZM37.8669 7.33915C38.48 7.33916 39.1723 7.73248 39.9311 8.56091V17.1897C39.6184 17.5565 39.2827 17.8587 38.9211 18.0905C38.5471 18.3229 38.2142 18.4308 37.9224 18.4308C37.7803 18.4308 37.666 18.4232 37.5826 18.4105C37.5212 18.4001 37.4228 18.3661 37.3002 18.305C37.2028 18.2532 37.1231 18.1779 37.0556 18.0677C36.9839 17.9505 36.9013 17.7701 36.8149 17.5328C36.731 17.2952 36.6626 17.0022 36.612 16.6555C36.5611 16.3071 36.517 15.8635 36.4802 15.3269C36.4508 14.7911 36.4359 14.1767 36.4359 13.4841V12.4301C36.4359 11.6189 36.4544 10.9119 36.4911 10.3099C36.5278 9.70917 36.5868 9.22831 36.6652 8.87217C36.7529 8.50028 36.8366 8.20285 36.9145 7.98326C36.9961 7.76654 37.0938 7.62575 37.1917 7.54918C37.321 7.45434 37.4288 7.3984 37.5014 7.37756C37.5924 7.35353 37.7151 7.33916 37.8669 7.33915ZM102.93 7.33915C103.543 7.33916 104.236 7.73248 104.995 8.56091V17.1897C104.682 17.5564 104.346 17.8586 103.985 18.0904C103.611 18.323 103.278 18.4308 102.986 18.4308C102.844 18.4308 102.729 18.4232 102.646 18.4105C102.585 18.4001 102.486 18.3661 102.364 18.305C102.266 18.2532 102.186 18.1779 102.119 18.0677C102.047 17.9505 101.965 17.7701 101.878 17.5328C101.794 17.2952 101.726 17.0022 101.675 16.6555C101.624 16.3071 101.58 15.8635 101.544 15.3269C101.514 14.7911 101.499 14.1767 101.499 13.4841V12.4301C101.499 11.6189 101.518 10.9119 101.555 10.3099C101.591 9.70985 101.65 9.22959 101.728 8.87357C101.728 8.87343 101.728 8.87344 101.728 8.87329C101.816 8.50075 101.9 8.20313 101.978 7.98326C102.059 7.76654 102.157 7.62575 102.255 7.54918C102.384 7.45434 102.492 7.3984 102.565 7.37756C102.656 7.35353 102.778 7.33916 102.93 7.33915ZM2.0268 10.1022H4.8798C5.2521 10.1022 5.5661 10.1686 5.8279 10.296L5.8288 10.2963L5.8295 10.2967C6.1039 10.4269 6.3122 10.5967 6.4647 10.8086L6.4664 10.8111L6.4684 10.8135C6.6306 11.0227 6.7631 11.2918 6.8622 11.6239L6.8626 11.6254L6.8632 11.627C6.9708 11.964 7.0424 12.3038 7.0782 12.6473C7.1145 12.995 7.133 13.3927 7.133 13.8393C7.133 14.3374 7.1109 14.7864 7.0673 15.1858L7.0671 15.1872L7.067 15.1888C7.0309 15.5854 6.9587 15.9745 6.8504 16.3566L6.85 16.358L6.8497 16.3594C6.7497 16.7373 6.6153 17.0447 6.4514 17.2835C6.2888 17.5203 6.077 17.7122 5.8095 17.8632C5.5485 18.0033 5.2416 18.0757 4.8798 18.0757H2.0268V10.1022ZM44.3129 13.4065H44.3223V13.4066L44.3129 13.4065ZM40.0994 17.2568H40.1002C40.1001 17.257 40.0999 17.2571 40.0998 17.2573L40.0994 17.2568Z" fill="white"/>
</svg>
