<svg width="24" height="16" viewBox="0 0 24 16" fill="none" xmlns="http://www.w3.org/2000/svg">
<g clip-path="url(#clip0)">
<path d="M12.0943 0C10.5571 0 9.1501 0.608157 8.03228 1.75203C6.61724 3.20004 6.04502 5.21635 6.50051 7.16192C6.99591 9.27806 8.66484 10.9482 10.8251 11.501C11.7121 11.728 13.0354 11.6605 13.9127 11.3456L14.346 11.19L14.5544 11.5842C14.6355 11.7377 14.719 11.8765 14.7926 11.9825C14.8294 12.0355 14.863 12.0798 14.8978 12.1177C14.9152 12.1365 14.9324 12.154 14.9565 12.1721C14.9806 12.1902 15.009 12.2198 15.0903 12.2198C15.1597 12.2198 15.1963 12.1912 15.2191 12.1729C15.242 12.1545 15.2547 12.1389 15.2667 12.1236C15.2903 12.0931 15.3078 12.0632 15.327 12.0279C15.3653 11.9574 15.4064 11.8675 15.4516 11.7601C15.5422 11.5452 15.6475 11.2629 15.747 10.9745C15.8464 10.6861 15.9397 10.3929 16.0049 10.1563C16.0375 10.0381 16.0631 9.93438 16.0793 9.8487C16.0874 9.80582 16.0932 9.76782 16.096 9.73054C16.0988 9.69326 16.1071 9.66254 16.081 9.5935C16.067 9.55646 16.0466 9.49334 15.9935 9.43414C15.9403 9.37494 15.8751 9.33686 15.784 9.29382C15.6019 9.20774 15.2867 9.09318 14.6339 8.85198C14.3703 8.75454 14.1249 8.67646 13.9354 8.62766C13.8407 8.60326 13.7609 8.58606 13.6926 8.5775C13.6584 8.57326 13.628 8.57054 13.5904 8.57342C13.5529 8.5763 13.4824 8.56558 13.4168 8.67302C13.4168 8.67302 13.4167 8.67302 13.4168 8.67302C13.3809 8.73206 13.3835 8.76822 13.383 8.79838C13.3824 8.82862 13.3853 8.85422 13.3894 8.88118C13.3976 8.93494 13.4118 8.99278 13.431 9.0583C13.4694 9.18926 13.5279 9.34846 13.5996 9.51286C13.6657 9.66454 13.7182 9.80774 13.7475 9.90814C13.7507 9.91878 13.7503 9.92126 13.7529 9.93086C13.6184 9.98646 13.3782 10.0629 13.0902 10.1208C12.7394 10.1913 12.3482 10.2407 12.085 10.2407C9.97385 10.2407 8.15064 8.66574 7.7818 6.51764C7.4572 4.62727 8.54108 2.60602 10.3354 1.77601C11.4647 1.25366 12.9878 1.30457 14.161 1.91156C14.6157 2.14681 15.129 2.62562 15.5412 3.17053C15.9533 3.71543 16.2655 4.32984 16.3527 4.80547C16.4047 5.08954 16.5261 5.32893 16.7623 5.46509C16.9984 5.60125 17.3079 5.64679 17.7692 5.67755C19.3819 5.78495 20.8217 6.98364 21.4076 8.73606C21.5892 9.28062 21.613 9.50302 21.5754 10.3179C21.5366 11.158 21.4962 11.3399 21.2083 11.9526C20.6094 13.2272 19.3464 14.241 18.0648 14.4875C18.0332 14.4936 17.7963 14.5125 17.462 14.5245C17.1278 14.5367 16.675 14.5474 16.1315 14.5565C15.0445 14.5744 13.5939 14.585 11.9924 14.585C10.3909 14.585 8.9402 14.5744 7.85326 14.5565C7.30977 14.5474 6.85714 14.5367 6.52287 14.5245C6.18861 14.5125 5.95162 14.4936 5.91999 14.4875C4.64341 14.242 3.38407 13.2337 2.76783 11.9497C2.43515 11.2565 2.43934 11.2605 2.44003 10.1184C2.44105 8.85566 2.61405 8.21086 3.08499 7.61732L3.20575 7.46508L3.50491 7.685C3.67879 7.81276 3.81282 7.9062 3.94124 7.96156C4.00544 7.98916 4.07102 8.01095 4.15275 8.00335C4.23447 7.99572 4.3262 7.9374 4.36915 7.86692C4.45505 7.72588 4.44037 7.5914 4.42378 7.4018C4.4072 7.21219 4.36789 6.96843 4.31153 6.65309C4.25912 6.35996 4.21134 6.085 4.1766 5.87888C4.15923 5.77581 4.14509 5.68992 4.13538 5.62808C4.13053 5.59716 4.12672 5.57212 4.12431 5.55485C4.12195 5.53794 4.12134 5.51885 4.12186 5.54026C4.11925 5.42527 4.04848 5.32005 3.96669 5.26203C3.8849 5.20401 3.79187 5.17447 3.68745 5.15553C3.47862 5.11766 3.2177 5.12742 2.91832 5.18059C2.28447 5.29309 1.86666 5.37371 1.59901 5.43885C1.46519 5.47141 1.36996 5.49886 1.2941 5.53109C1.25617 5.54719 1.22261 5.56325 1.18601 5.59341C1.1494 5.62356 1.09783 5.6844 1.09783 5.77141C1.09783 5.85361 1.12315 5.87542 1.13829 5.89897C1.15344 5.92252 1.16842 5.94065 1.18526 5.95967C1.21894 5.9977 1.25996 6.03734 1.30923 6.08161C1.40774 6.17015 1.53818 6.27491 1.68218 6.37983L2.04886 6.64704L1.83885 6.99148C1.83889 6.99148 1.83881 6.99148 1.83885 6.99148C1.12571 8.16062 0.832278 9.83078 1.09495 11.2098C1.52287 13.4566 3.33696 15.3479 5.52764 15.829C5.53802 15.8313 5.54856 15.8326 5.55916 15.8331C5.72017 15.8649 5.97564 15.8853 6.35152 15.905C6.74667 15.9258 7.25487 15.9432 7.83951 15.9571C9.00882 15.985 10.4831 15.9993 11.9583 16C13.4336 16.0007 14.9093 15.9876 16.0814 15.9608C16.6675 15.9475 17.1775 15.9307 17.5748 15.9102C17.972 15.8898 18.2455 15.8692 18.4052 15.835C21.5725 15.1577 23.6234 11.8375 22.8284 8.67142C22.2655 6.42996 20.4337 4.6829 18.2449 4.30884L17.6046 4.19943L17.4635 3.77851C16.7344 1.60306 14.4482 0 12.0943 0Z" fill="white"/>
</g>
<defs>
<clipPath id="clip0">
<rect width="24" height="16" fill="white"/>
</clipPath>
</defs>
</svg>
